<svg xmlns="http://www.w3.org/2000/svg" width="1646.667" height="1345.333" viewBox="0 0 1235 1009" preserveAspectRatio="xMidYMid meet" xmlns:v="https://vecta.io/nano"><path d="M997.5 70L595 205.5l-110 37L370.5 281l-145.4 48.9-83.7 28.1c-.2 0-.4.7-.4 1.6 0 1.3.7 1.5 3.2 1 1.8-.4 17.9-.9 35.8-1.2 30.9-.6 33.6-.5 55 2 58.4 6.9 117.4 26.4 169.9 56.1 10.8 6 22.5 13 26.1 15.4 21.6 14.8 34.7 24.6 51.1 38.4 95.2 80.3 160.4 194.1 181 316.2 2.2 13.2 4.7 31 5.4 39.5 2.2 23 1.9 63-.5 88-2.3 24.4-2.3 24-.7 24 .7 0 15.2-32.5 33.1-74.3L755.8 736l162.7-378.5 85.4-198.6L1048 55.1c0-.6-.8-1.1-1.7-1-1 0-22.9 7.2-48.8 15.9zm-10 18.8c-.6.5-114.4 69-253 152.2L454.4 409.2l-28.2 16.9-18.1-10.3-18.1-10.2 2.8-1.7c1.5-.9 92.5-49.3 202.2-107.5l296-157.1L988 88c.2 0 0 .4-.5.8zm7.5-.4c0 .2-9.1 6.6-20.2 14.2l-30.6 20.8-68 46.6-33.5 22.9-380 258.4C457.3 448 430 428.5 430 428c0-.4 82.5-50.3 183.3-110.8l282.2-169.6L994.8 88c.1 0 .2.2.2.4zm-18.5 2.3L387.2 403.2c-1.1.4-37.2-15.5-37.2-16.3 0-.3 17.2-8.6 38.3-18.6l557.2-263.8 33-15.4c.6 0-.3.7-2 1.6zm22 .2c-1.1 1-37.3 29.4-80.5 63.1L787 256.5 722.5 307 566.2 429.3 499 480.8c-1.4-.5-32-26-32-26.7 0-.3 10.3-7.6 22.7-16.1l97.3-66.5 36-24.7 200.5-137.2L1000 89.1c.2-.1-.4.7-1.5 1.8zm5 1L904 181.1 534.2 512.4l-2.3 2-14.9-14.9c-8.3-8.3-15-15.3-15-15.6 0-.5 24.3-19.6 111-87.4l115-90 45.5-35.6 151-118.3 81.5-63.5c.2-.1-.9 1.2-2.5 2.8zm-.6 5.8L782.5 324 565 547.3l-2.7 2.9-13.8-16.5c-7.6-9.1-13.7-16.8-13.7-17.1.1-.4 28.6-26.2 63.4-57.4L766.9 308l173-155.2 68.1-60.7c.2-.1-2.1 2.5-5.1 5.6zm-41-4.3c-.2.2-139 66-308.4 146.1l-308 145.8-18.8-6.3c-10.4-3.4-18.5-6.5-18-6.9.4-.4 19.9-8.9 43.3-18.8l523.5-223.7 86.4-36.2zm40.9 10.9l-57.9 67.8-100 117-74.4 87-67 78.4-110 128.8c-3.1 3.7-4.2 4.4-5.1 3.5-.7-.7-6.4-8.7-12.8-17.8l-11.5-16.4 11.7-12.1 222.1-227.8L1008.6 97c.3 0-2.4 3.3-5.8 7.3zm-23.9 38.4L836 332.5l-82.1 109-87 115.5-53.9 70.8c-.4.2-5.6-8.1-11.5-18.3l-10.7-18.7 2-2.1c1.7-1.9 41-47.9 129.2-151.2l120.5-141 132.3-154.8 36.7-42.7c.2 0-14.5 19.7-32.6 43.7zm-45-41.3c-.2.2-23.8 10.4-52.4 22.6L690 205.8 385 336l-82.4 35.2-16.6-3.7-18.9-4.2c-1.7-.4-2-.8-1-1.3.8-.5 21.2-8.5 45.4-18L442 293l206-80.5 69.5-27.2 114-44.5 77.5-30.4c21.3-8.4 26.2-10.2 24.9-9zm12.5 101.3l-96.9 144.8-99 148-116.9 174.2c-.8.9-3.2-3.4-9.8-17.7-4.9-10.4-8.8-19.4-8.8-20 0-1 25.4-35 112.5-150.5L843.2 328l67.8-90 65.3-86.8 34.4-45.2c.2 0-28.7 43.5-64.3 96.7zm-48.5-91.3c-.2.2-24.2 9.7-53.4 21.1L766 163.2l-78 30.5-168.5 65.8L462 282l-124 48.5-78.5 30.8-17-1.8c-9.3-1-17.8-2.1-18.7-2.4-.9-.4 45-17.6 111-41.6L672 192.8l225.4-81.7c.5-.1.7.1.5.3zm108.3 8.8L826.6 419.4 648.5 713.9l-7.4-20.4-6.9-18.9 60.6-90.6 112-167.5 83.7-125L965 180.2l42.7-63.2c.3 0-.4 1.5-1.5 3.2zm-4.6 15L909.8 304 741.5 613.4l-80.7 145c-1-2.5-9.9-36.5-10.1-38.4-.1-1.4 353.1-591 354-591 .2 0-1.2 2.8-3.1 6.2zM830 132.1c-1.4.6-140.3 51.2-308.8 112.5L215 356h-17.3c-10.1 0-16.6-.4-15.7-.9.8-.5 42.9-15.2 93.5-32.6l134-46.2 72-24.8 86.5-29.8 102-35.2L787.5 146l28-9.8c7.7-2.7 14.7-5 15.5-5s.4.4-1 .9zm4.4 345L669.3 805.3c-.2-.6-1.9-10-3.7-20.7l-3.3-19.6 43.7-80.2 145.9-268.3 146.9-269c.2.1-73.8 148.5-164.4 329.6zm107.2-191L804.5 591.5 689.6 847.4l-16.1 35.9-.3-19.9-.2-20 62.4-130.9 138.6-291 90.8-190.7 14.9-30.4c.1.1-17 38.7-38.1 85.7zm-385.7-63.7c-.2.3-13.7 5-29.9 10.6l-71 24.5-203 70-76 26.3c-5.1 1.7-20 3.8-20 2.8 0-.3 5.5-2.3 12.3-4.5 6.7-2.1 49.8-16.6 95.7-32.1l138-46.5 103.5-34.8 50.4-16.3zm262.9 307.9L672.5 836.8c-.2-.2-.8-5.8-1.4-12.5L670 812l147.2-294.4 147.5-294.2c.1.1-65.5 138.2-145.9 306.9zm128.1-246.2l-45.4 105.4-56.3 131-131 304.7-44 100.8c-.2-.5.4-8.4 1.3-17.6l1.6-16.8 25.6-57.1 200.5-446.8 51.5-113.4c.1.2-1.6 4.6-3.8 9.8z"/></svg>