<?xml version="1.0" standalone="no"?>
<!DOCTYPE svg PUBLIC "-//W3C//DTD SVG 20010904//EN"
 "http://www.w3.org/TR/2001/REC-SVG-20010904/DTD/svg10.dtd">
<svg version="1.0" xmlns="http://www.w3.org/2000/svg"
 width="1456.000000pt" height="672.000000pt" viewBox="0 0 1456.000000 672.000000"
 preserveAspectRatio="xMidYMid meet">
<metadata>
Created by potrace 1.16, written by Peter Selinger 2001-2019
</metadata>
<g transform="translate(0.000000,672.000000) scale(0.100000,-0.100000)"
fill="#000000" stroke="none">
<path d="M2808 6513 c-10 -2 -18 -6 -18 -9 0 -7 107 -277 143 -360 19 -45 75
-151 125 -235 117 -202 292 -529 435 -814 108 -217 267 -550 267 -561 0 -3
-45 32 -100 77 -55 45 -100 86 -100 91 0 15 -343 696 -458 908 -57 107 -154
277 -214 377 -86 143 -121 214 -164 328 -30 80 -54 152 -54 160 0 17 -18 19
-40 5 -12 -7 -11 -18 9 -77 60 -174 109 -278 191 -414 49 -80 137 -234 195
-340 105 -192 429 -830 479 -943 l26 -58 -33 24 c-17 13 -58 44 -90 68 -59 44
-59 44 -214 354 -234 468 -395 760 -535 969 -65 98 -85 138 -121 242 -38 112
-44 125 -65 125 -21 0 -23 -3 -17 -32 24 -110 88 -253 163 -365 83 -125 194
-313 309 -528 107 -198 375 -737 369 -742 -2 -3 -41 23 -85 56 l-81 62 -134
267 c-218 431 -364 685 -541 942 -54 79 -79 127 -101 193 -25 76 -31 87 -51
87 -13 0 -23 -2 -23 -4 0 -2 11 -43 25 -92 22 -74 41 -110 124 -233 136 -204
195 -301 300 -491 118 -214 354 -680 348 -687 -3 -2 -41 21 -84 53 l-79 58
-118 233 c-168 332 -354 644 -541 908 -41 58 -77 120 -84 148 -11 39 -18 47
-37 47 -21 0 -23 -3 -17 -32 11 -59 31 -97 121 -226 185 -264 354 -551 524
-887 122 -241 122 -235 -5 -138 -52 40 -64 57 -119 166 -102 205 -264 477
-445 747 -197 296 -206 309 -230 309 -15 1 -23 -5 -23 -15 0 -9 38 -68 83
-132 129 -181 213 -309 347 -532 116 -193 296 -527 289 -535 -2 -2 -37 20 -78
48 -72 51 -76 55 -156 199 -185 330 -411 682 -539 840 -59 72 -73 85 -88 77
-10 -5 -18 -13 -18 -18 0 -5 31 -46 68 -92 140 -173 383 -554 563 -883 42 -78
64 -107 102 -134 26 -18 47 -35 47 -37 0 -2 -51 25 -112 59 -72 40 -120 73
-132 92 -10 16 -61 103 -113 194 -195 337 -382 608 -497 720 -53 51 -57 53
-73 37 -16 -15 -13 -21 48 -84 144 -150 352 -463 584 -879 26 -47 38 -55 184
-137 86 -48 167 -97 181 -108 14 -12 -1 -6 -35 12 -33 19 -145 81 -250 139
l-189 105 -49 85 c-217 375 -381 604 -556 775 -48 47 -52 48 -68 32 -16 -16
-14 -21 53 -90 186 -190 303 -355 505 -705 l77 -134 169 -92 c254 -139 436
-245 453 -263 14 -15 13 -15 -10 -1 -61 37 -478 272 -606 342 l-142 77 -52 90
c-138 238 -280 428 -464 617 -104 106 -110 111 -128 96 -17 -16 -13 -22 90
-128 183 -190 309 -356 456 -604 60 -101 72 -115 116 -137 28 -14 50 -28 50
-31 0 -3 -51 21 -112 54 l-113 59 -70 104 c-88 132 -176 246 -286 374 -88 102
-241 255 -254 255 -4 0 -13 -7 -20 -16 -10 -14 5 -33 100 -128 171 -171 321
-356 435 -537 49 -79 58 -88 126 -124 40 -22 72 -41 70 -42 -2 -2 -59 20 -129
49 l-125 53 -87 120 c-170 234 -346 427 -436 478 -45 26 -45 26 -58 5 -14 -23
-13 -24 50 -58 67 -35 300 -302 442 -505 l56 -80 143 -60 c130 -53 268 -121
268 -131 0 -5 -24 5 -130 51 -47 21 -150 59 -230 85 l-145 47 -88 116 c-176
233 -275 331 -399 397 l-57 31 -12 -23 c-7 -14 -8 -23 -2 -25 5 -2 47 -26 91
-54 94 -57 197 -166 344 -364 l89 -119 147 -47 c155 -50 363 -136 469 -195 35
-20 63 -37 63 -39 0 -2 -51 19 -112 47 -105 47 -411 155 -589 208 -75 22 -78
24 -125 88 -147 200 -250 292 -417 369 l-48 22 -8 -22 c-8 -20 -1 -26 68 -62
144 -75 234 -159 369 -342 l53 -72 87 -26 c239 -72 462 -151 588 -208 150 -68
224 -105 224 -112 0 -6 -40 9 -97 38 -83 42 -487 182 -798 276 l-100 30 -54
70 c-60 77 -101 113 -206 186 -64 44 -213 121 -220 113 -1 -2 -5 -13 -9 -24
-6 -19 1 -24 47 -43 66 -27 186 -103 251 -160 28 -24 76 -76 107 -115 l57 -71
148 -44 c239 -70 649 -214 774 -271 157 -71 213 -100 207 -106 -3 -3 -33 9
-67 26 -132 67 -768 286 -1014 350 -125 33 -132 36 -190 88 -77 69 -185 146
-256 182 -67 34 -120 32 -120 -5 0 -18 4 -21 24 -18 43 9 204 -91 322 -200 57
-52 63 -55 199 -91 410 -110 1150 -384 1129 -418 -3 -5 -13 -3 -22 5 -37 32
-618 242 -917 331 -126 37 -169 45 -273 51 l-123 7 -57 50 c-31 27 -91 72
-132 99 -72 48 -78 50 -133 46 -62 -4 -81 -14 -71 -40 5 -14 15 -16 59 -11 51
6 56 5 123 -39 38 -26 96 -71 129 -100 l60 -54 125 -6 c105 -5 147 -12 264
-46 172 -50 395 -125 667 -226 185 -69 238 -95 192 -95 -8 0 -15 4 -15 8 0 4
-8 8 -17 9 -10 1 -85 27 -168 59 -82 31 -251 90 -375 131 -215 71 -232 76
-375 89 -82 7 -196 13 -252 14 -98 0 -104 1 -135 28 -128 110 -187 133 -276
107 -59 -18 -66 -25 -49 -49 11 -16 16 -16 57 -1 25 9 58 14 73 11 31 -6 102
-52 158 -103 l37 -34 188 -9 c104 -6 216 -13 249 -16 79 -8 280 -69 545 -165
305 -110 278 -99 257 -111 -14 -7 -23 -6 -35 5 -20 16 -102 47 -342 128 -203
69 -279 80 -685 101 l-240 12 -42 34 c-55 44 -131 53 -212 25 -58 -20 -66 -29
-51 -53 8 -12 15 -12 57 2 46 16 78 22 114 19 10 -1 41 -19 70 -41 l53 -40
106 0 c107 0 280 -11 495 -31 128 -11 225 -37 445 -116 194 -71 178 -63 157
-75 -14 -7 -22 -6 -30 5 -7 8 -70 34 -140 57 -148 49 -317 72 -657 90 -260 14
-462 28 -522 36 -69 9 -153 -18 -173 -56 -14 -28 -14 -30 6 -41 17 -9 23 -8
30 2 5 8 9 17 9 21 0 15 74 30 118 24 26 -3 141 -11 257 -16 471 -21 772 -55
900 -101 106 -38 114 -43 86 -58 -17 -9 -21 -9 -21 3 0 18 -12 20 -220 46
-404 49 -728 63 -858 36 -45 -10 -123 -18 -173 -19 -85 -2 -92 -4 -114 -29
-28 -33 -42 -97 -23 -109 25 -16 38 -9 38 21 0 53 29 70 118 69 42 0 120 9
173 20 88 18 112 19 280 10 255 -13 733 -61 748 -75 3 -2 -4 -11 -15 -19 -23
-17 -55 -18 -149 -4 -112 16 -339 37 -480 45 -149 7 -267 -7 -451 -56 -61 -17
-133 -30 -161 -30 -68 0 -89 -23 -101 -113 -7 -54 -6 -69 5 -75 11 -6 11 -23
2 -91 -9 -64 -8 -88 1 -106 8 -15 10 -40 5 -73 -5 -38 -3 -51 8 -55 11 -4 12
-16 6 -54 -11 -70 -11 -73 11 -73 21 0 26 -10 11 -25 -12 -14 -22 -105 -12
-105 5 0 16 -3 24 -6 11 -4 16 6 21 39 7 43 11 48 84 95 108 71 238 129 367
163 129 34 382 85 475 95 58 6 69 12 115 52 27 25 14 9 -30 -36 l-80 -82 -110
-20 c-290 -53 -425 -99 -599 -203 -205 -123 -283 -192 -260 -229 10 -16 44 -8
44 10 0 37 285 215 445 278 98 38 419 114 484 114 10 0 81 59 162 137 l144
136 -170 -171 -170 -172 -104 -21 c-233 -47 -449 -155 -734 -366 -83 -62 -87
-66 -71 -84 16 -18 19 -17 73 25 31 23 103 74 161 113 234 155 392 227 585
264 l110 22 150 146 c83 80 186 180 231 221 44 41 -37 -41 -180 -182 l-261
-257 -90 -32 c-218 -78 -550 -279 -712 -430 -52 -48 -59 -58 -48 -72 7 -9 16
-17 20 -17 4 0 39 30 79 66 155 145 492 346 686 409 l85 28 250 240 c343 331
419 402 360 339 -28 -29 -144 -142 -258 -250 -114 -108 -249 -246 -299 -307
l-91 -110 -147 -76 c-286 -149 -480 -288 -594 -428 -49 -59 -56 -74 -46 -86 7
-8 16 -15 21 -15 4 0 34 32 66 71 109 135 294 268 585 419 l149 77 82 100 c45
55 145 160 222 234 l140 134 -105 -110 c-116 -121 -236 -268 -320 -392 -52
-77 -60 -83 -150 -132 -292 -155 -429 -269 -601 -495 -41 -54 -48 -70 -39 -82
7 -8 16 -14 20 -14 4 0 36 37 72 83 173 220 297 320 583 471 88 46 92 49 160
148 83 120 249 321 330 398 73 69 62 50 -35 -65 -79 -92 -183 -233 -304 -410
-91 -132 -98 -139 -184 -187 -112 -62 -260 -177 -332 -259 -145 -165 -270
-326 -270 -348 0 -6 8 -14 17 -19 14 -8 26 4 71 67 177 246 349 410 556 526
63 36 89 57 116 98 228 336 388 537 551 692 52 49 71 65 43 35 -157 -170 -325
-394 -614 -817 -44 -65 -70 -91 -134 -134 -137 -94 -385 -370 -504 -561 -47
-76 -49 -83 -25 -97 14 -7 25 3 61 62 119 191 366 466 502 560 75 51 87 65
193 218 179 259 345 487 421 579 91 109 206 230 218 230 5 0 -23 -36 -61 -80
-121 -137 -523 -695 -637 -885 -60 -100 -92 -140 -184 -230 -197 -194 -352
-398 -415 -545 -33 -78 -33 -80 -13 -91 11 -6 21 -9 23 -7 2 2 18 37 36 78 59
141 232 365 417 542 80 76 110 114 167 208 37 63 100 160 138 215 203 290 412
572 495 669 89 104 92 109 76 128 -17 18 -16 20 21 58 37 38 38 41 22 57 -16
16 -19 15 -55 -17 -21 -19 -5 -2 36 38 65 64 73 74 61 90 -7 9 -15 19 -16 21
-2 3 -43 -33 -92 -80 -48 -46 -31 -29 37 38 122 119 125 123 108 142 -17 19
-17 21 18 52 21 18 35 38 32 45 -3 7 13 23 39 38 35 21 42 30 37 48 -4 17 -2
20 11 15 10 -4 24 -10 32 -13 9 -4 17 1 21 10 9 22 20 20 77 -15 39 -24 52
-28 58 -17 5 7 9 16 9 21 0 14 20 7 71 -25 49 -30 52 -30 65 -13 7 10 11 22 7
28 -3 5 14 -2 38 -17 78 -48 88 -51 102 -33 11 15 19 12 78 -32 60 -44 68 -48
82 -34 14 14 22 11 83 -37 58 -45 70 -51 86 -41 21 13 22 12 102 -48 53 -41
58 -43 73 -28 15 15 21 12 77 -31 83 -66 85 -66 104 -48 16 14 24 10 92 -44
66 -53 76 -58 87 -44 14 20 19 17 111 -64 67 -60 74 -64 89 -49 15 15 23 10
98 -59 78 -70 105 -87 105 -64 0 23 26 6 106 -66 79 -72 85 -76 102 -61 17 16
24 12 106 -64 85 -78 88 -80 107 -63 19 17 21 16 72 -32 128 -122 125 -119
144 -101 17 15 24 10 108 -68 91 -85 111 -97 121 -70 5 11 34 -11 107 -79 96
-89 103 -94 120 -78 17 15 23 10 110 -76 51 -51 97 -92 103 -92 5 0 15 5 22
12 10 10 -14 39 -110 138 -68 69 -24 27 97 -92 121 -120 225 -218 231 -218 5
0 15 5 22 12 10 10 -38 64 -225 253 -131 132 -87 90 97 -92 184 -183 340 -333
346 -333 5 0 15 5 22 12 10 10 -11 36 -95 122 -129 132 -84 96 75 -59 61 -60
112 -114 112 -120 0 -5 -7 -1 -15 9 -8 11 -18 17 -21 13 -4 -4 -13 1 -19 10
-11 15 -23 12 -129 -38 -101 -47 -116 -57 -112 -74 5 -18 -8 -27 -79 -63 -60
-29 -83 -46 -79 -56 4 -10 -16 -22 -71 -43 -54 -20 -80 -34 -86 -50 -4 -12
-18 -24 -31 -28 -84 -26 -129 -48 -124 -60 3 -10 -21 -24 -80 -46 -58 -22 -83
-36 -82 -47 2 -10 -22 -23 -78 -44 -55 -20 -81 -35 -80 -45 1 -10 -25 -25 -74
-45 -41 -16 -78 -36 -82 -43 -4 -7 -37 -18 -73 -25 -36 -7 -72 -19 -80 -26 -7
-8 -46 -21 -86 -29 -40 -9 -76 -20 -80 -26 -3 -6 -37 -17 -75 -26 -38 -9 -73
-21 -79 -28 -5 -7 -57 -25 -115 -40 -117 -31 -155 -47 -163 -69 -4 -11 56 -54
221 -159 404 -257 431 -270 727 -364 61 -20 144 -52 185 -73 101 -51 248 -112
345 -144 68 -22 108 -27 260 -35 99 -4 183 -6 188 -4 4 2 7 12 7 22 0 16 -19
19 -182 29 -165 10 -193 15 -283 46 -107 36 -223 85 -320 133 -33 17 -134 55
-225 86 -91 31 -196 68 -235 84 -56 23 -511 298 -590 357 -19 14 -19 15 -1 22
10 4 25 3 32 -2 7 -5 103 -67 213 -137 224 -144 252 -157 636 -287 143 -48
294 -103 337 -123 204 -94 280 -109 626 -123 l162 -7 0 25 0 25 -176 6 c-320
13 -395 28 -596 121 -42 20 -191 74 -330 120 -348 116 -418 147 -605 266 -142
90 -178 120 -142 120 5 0 58 -32 118 -70 60 -39 149 -87 198 -107 118 -48 497
-181 679 -238 80 -26 181 -61 223 -79 56 -24 104 -36 181 -45 185 -21 341 -31
488 -31 134 0 142 1 142 20 0 25 -20 28 -265 34 -251 6 -428 28 -515 62 -36
15 -218 78 -405 141 -186 63 -398 138 -470 167 -137 56 -265 129 -246 141 7 3
67 -16 134 -44 344 -142 940 -340 1107 -366 227 -37 619 -63 753 -50 70 6 77
9 77 28 0 22 -1 22 -223 23 -323 0 -571 29 -782 91 -212 61 -776 259 -905 316
l-55 25 39 7 c32 7 63 -2 210 -55 593 -218 675 -241 951 -279 121 -16 269 -35
329 -40 161 -16 426 -14 526 4 47 8 86 15 86 15 1 0 -1 11 -4 25 -3 18 -9 24
-21 21 -9 -2 -63 -12 -121 -22 -159 -25 -363 -14 -804 47 -207 28 -229 34
-440 104 -249 83 -577 202 -589 214 -5 5 8 12 27 15 29 6 65 -4 188 -50 462
-171 493 -178 993 -244 390 -52 532 -52 823 2 107 19 112 21 112 45 0 21 -4
24 -22 20 -13 -3 -95 -18 -183 -33 -145 -24 -176 -26 -335 -21 -108 3 -264 17
-405 36 -353 47 -433 61 -525 88 -134 41 -530 185 -530 193 0 4 15 10 32 12
22 4 65 -7 133 -32 316 -117 433 -142 1000 -214 320 -41 400 -42 606 -12 252
37 399 66 399 80 -1 33 -15 35 -115 15 -184 -35 -440 -69 -526 -69 -120 0
-359 29 -793 96 -193 30 -250 43 -372 85 -79 27 -163 58 -186 68 l-43 19 38 7
c31 6 58 0 140 -29 108 -39 281 -71 772 -141 356 -52 439 -57 598 -39 219 24
628 92 643 107 3 3 3 14 0 25 -6 19 -9 19 -74 5 -274 -57 -665 -107 -777 -98
-242 19 -985 135 -1100 172 -97 31 -107 39 -61 47 24 5 117 -7 274 -33 507
-86 834 -131 957 -131 166 0 802 92 812 117 8 21 -191 226 -702 725 l-470 459
-49 112 c-382 867 -760 1672 -905 1926 -90 157 -319 586 -428 801 -37 74 -72
135 -78 137 -5 1 -17 -2 -25 -7 -13 -8 2 -43 89 -212 122 -238 338 -638 424
-788 115 -199 477 -972 854 -1825 l76 -170 531 -526 531 -526 -110 -17 c-346
-52 -574 -59 -826 -26 -239 32 -719 112 -719 120 0 4 21 13 47 21 41 11 63 10
182 -10 389 -64 526 -80 772 -86 196 -6 273 -4 394 9 82 10 150 18 151 19 24
30 8 48 -419 472 -237 237 -509 506 -603 598 l-171 167 -93 207 c-465 1038
-686 1502 -911 1913 -55 102 -168 317 -251 477 -137 267 -151 292 -169 283
-10 -6 -19 -14 -19 -17 0 -13 294 -580 425 -822 190 -348 417 -824 805 -1687
l175 -390 450 -441 c248 -243 493 -485 545 -538 l95 -97 -345 7 c-348 7 -347
7 -727 62 -24 3 -43 9 -43 14 0 4 19 14 42 21 36 12 57 12 162 -3 83 -13 220
-20 436 -25 246 -5 318 -10 331 -20 13 -12 18 -12 32 4 15 17 -7 41 -401 433
-229 228 -508 503 -619 610 l-202 195 -104 235 c-332 747 -661 1435 -883 1850
-49 91 -150 285 -224 432 -130 258 -154 292 -175 257 -6 -10 171 -368 330
-665 262 -492 658 -1324 974 -2046 l42 -95 367 -357 c202 -196 466 -455 587
-577 l220 -220 -45 5 c-25 2 -159 7 -298 10 -226 5 -344 13 -422 32 -22 5 -18
8 30 24 51 18 70 19 315 9 143 -5 266 -10 273 -10 6 0 12 10 12 23 0 17 -112
135 -437 459 -241 239 -528 521 -638 626 l-200 191 -139 308 c-248 550 -447
971 -619 1313 -579 1145 -543 1077 -565 1069 -21 -8 -21 -9 -6 -46 27 -64 238
-483 390 -773 202 -387 503 -1020 801 -1685 87 -194 99 -215 156 -274 34 -36
-19 12 -118 107 l-180 171 -134 298 c-277 614 -436 945 -741 1543 -131 256
-268 531 -306 611 -64 139 -69 146 -90 137 l-22 -10 31 -72 c17 -39 137 -280
267 -536 414 -819 645 -1303 936 -1958 l23 -53 -31 26 c-17 14 -68 60 -113
101 l-83 75 -127 282 c-215 473 -464 990 -650 1347 -150 289 -325 646 -403
823 -22 49 -27 53 -52 37 -12 -7 -7 -25 30 -107 89 -198 234 -495 399 -812
185 -356 390 -782 615 -1274 79 -175 150 -325 157 -334 8 -10 -40 30 -105 87
-136 120 -100 58 -342 585 -149 325 -427 888 -538 1090 -79 143 -242 479 -332
682 -36 82 -54 112 -67 113 -10 0 -20 -6 -23 -13 -4 -12 94 -235 234 -528 33
-69 101 -201 152 -293 151 -274 612 -1228 737 -1526 l15 -35 -29 26 c-15 14
-64 57 -109 97 -77 68 -83 76 -134 189 -223 493 -455 965 -659 1338 -102 185
-284 565 -346 723 -17 42 -28 49 -53 33 -23 -14 198 -498 367 -801 106 -191
336 -644 441 -870 129 -276 260 -563 257 -566 -1 -1 -47 37 -103 86 l-100 87
-63 139 c-194 425 -447 926 -636 1259 -96 169 -235 463 -292 618 -26 69 -45
89 -65 69 -8 -8 -4 -31 17 -84 64 -167 193 -443 270 -578 173 -306 427 -800
573 -1115 33 -71 81 -175 106 -229 25 -54 46 -101 46 -103 0 -2 -45 35 -101
83 -101 88 -101 88 -157 208 -175 376 -479 964 -650 1256 -85 146 -155 297
-227 488 -21 56 -41 101 -44 101 -3 -1 -14 -3 -23 -6z m-1353 -2179 c186 -15
394 -40 403 -48 2 -3 -8 -11 -23 -18 -20 -11 -42 -12 -83 -7 -31 5 -137 15
-235 25 -165 15 -186 15 -300 -1 -115 -15 -332 -64 -442 -100 -27 -9 -75 -20
-106 -24 l-55 -7 6 44 c9 54 19 64 66 64 22 -1 82 11 134 25 134 36 329 69
392 65 29 -1 139 -9 243 -18z m40 -94 c61 -6 152 -15 203 -21 88 -11 92 -12
71 -27 -20 -14 -39 -14 -148 -4 -101 8 -150 8 -244 -3 -182 -22 -453 -84 -646
-150 -58 -19 -106 -35 -106 -35 -5 0 12 88 19 98 4 7 18 12 30 12 13 0 68 14
122 30 192 59 426 106 539 109 28 0 100 -4 160 -9z m180 -109 l40 -8 -37 -17
c-21 -9 -54 -16 -75 -16 -192 0 -719 -122 -884 -206 l-89 -44 6 47 c4 27 14
55 23 64 26 26 261 96 501 149 204 45 382 56 515 31z m-10 -110 c-40 -38 -41
-39 -202 -65 -356 -58 -588 -134 -752 -246 -35 -23 -65 -40 -67 -37 -3 3 -2
31 3 63 l8 59 83 43 c151 79 550 176 832 202 63 6 116 13 119 15 2 3 7 5 10 5
3 0 -12 -17 -34 -39z m4850 -1631 l49 -50 -204 7 c-113 3 -213 9 -224 13 -15
5 -7 11 35 30 48 21 67 23 172 21 101 -2 117 0 117 13 0 9 1 16 3 16 1 0 25
-22 52 -50z m-420 -291 c100 -15 224 -23 435 -29 442 -13 458 -13 462 6 2 11
11 7 37 -19 l33 -35 -78 -9 c-147 -15 -626 -9 -759 10 -193 29 -489 77 -505
84 -9 3 3 12 35 22 44 16 57 16 125 4 41 -7 138 -22 215 -34z m-469 -134 c44
-8 180 -31 304 -50 511 -82 661 -90 970 -55 286 33 335 42 333 64 -1 14 6 11
33 -15 18 -18 33 -34 31 -35 -12 -12 -401 -69 -607 -88 -128 -12 -157 -12
-293 4 -165 20 -676 98 -851 130 -61 11 -115 20 -120 21 -22 1 70 38 95 39 15
0 62 -7 105 -15z"/>
<path d="M11476 6217 c-17 -13 -17 -17 13 -75 98 -195 165 -421 177 -596 7
-106 9 -114 61 -225 125 -265 281 -646 270 -658 -2 -1 -25 50 -52 115 -101
246 -219 512 -285 642 -57 113 -74 159 -103 280 -49 204 -128 401 -185 463
-48 50 -62 56 -82 31 -11 -13 -6 -23 37 -67 36 -37 60 -76 86 -137 44 -106 91
-256 117 -379 16 -71 35 -121 80 -205 112 -211 393 -877 377 -893 -2 -1 -27
57 -56 130 -199 491 -303 708 -409 845 -58 75 -66 91 -92 190 -69 262 -105
336 -211 436 -77 73 -83 76 -100 60 -17 -15 -14 -20 70 -103 79 -78 91 -94
119 -167 17 -45 45 -133 62 -195 17 -63 36 -127 40 -142 5 -16 38 -65 74 -111
102 -130 269 -486 457 -974 8 -19 12 -21 30 -12 26 14 28 12 43 -47 10 -40 16
-48 34 -45 17 2 23 -5 31 -35 6 -21 11 -46 11 -55 0 -12 8 -18 25 -18 19 0 26
-7 34 -37 6 -21 11 -46 11 -55 0 -13 8 -18 29 -18 27 0 29 -4 36 -46 9 -64 14
-72 35 -67 15 4 20 -2 25 -34 12 -72 15 -83 29 -83 9 0 15 -18 18 -61 3 -44 9
-64 21 -71 13 -7 17 -23 17 -67 0 -50 3 -59 20 -64 17 -4 20 -14 20 -66 0 -48
3 -61 15 -61 17 0 19 -35 18 -250 -1 -76 3 -127 9 -131 7 -5 7 -28 1 -73 -8
-54 -7 -68 4 -75 11 -6 12 -20 3 -75 -6 -38 -9 -70 -7 -73 3 -2 -1 -24 -9 -49
-11 -36 -11 -49 -1 -65 6 -10 16 -19 21 -19 4 0 115 54 245 120 227 116 243
126 434 276 110 85 254 201 321 258 111 93 129 105 192 122 50 13 98 37 172
87 111 74 170 130 269 252 60 73 63 80 47 92 -10 7 -20 13 -23 13 -3 -1 -30
-31 -58 -68 -130 -166 -280 -282 -431 -333 -79 -27 -97 -38 -202 -128 -63 -54
-205 -168 -315 -254 -184 -144 -215 -164 -396 -256 -108 -56 -199 -101 -203
-101 -23 0 20 28 132 85 105 53 168 96 362 247 129 101 291 230 359 288 248
210 272 230 280 230 13 0 174 110 210 144 68 64 179 203 210 263 31 62 31 62
10 73 -25 14 -20 18 -54 -50 -34 -68 -182 -240 -250 -290 -27 -20 -86 -59
-130 -86 -44 -28 -145 -106 -225 -175 -288 -247 -642 -520 -753 -579 -43 -23
-81 -40 -84 -37 -6 7 -11 3 262 210 358 272 587 467 678 578 52 64 96 106 133
129 30 18 99 79 153 136 86 90 106 118 160 225 62 121 65 138 25 139 -5 0 -35
-51 -66 -112 -48 -97 -70 -128 -153 -215 -53 -56 -122 -118 -153 -137 -39 -24
-84 -67 -141 -136 -64 -77 -133 -140 -290 -270 -186 -153 -572 -452 -577 -447
-1 1 0 14 3 29 4 20 34 49 122 114 217 164 456 358 531 433 41 42 126 138 189
213 62 75 162 186 220 246 105 106 109 113 194 280 85 166 87 171 66 182 -11
7 -22 10 -23 8 -2 -2 -40 -76 -86 -166 -79 -156 -86 -166 -184 -265 -55 -56
-132 -140 -171 -187 -215 -262 -266 -312 -580 -561 -163 -129 -236 -182 -242
-176 -15 16 19 53 115 128 304 236 326 258 564 534 47 55 116 147 153 205 37
58 95 134 129 170 49 53 83 107 169 270 96 184 105 206 91 217 -9 7 -21 10
-25 7 -4 -2 -54 -93 -111 -201 -77 -148 -117 -212 -159 -258 -31 -33 -89 -109
-129 -170 -70 -106 -235 -306 -368 -446 -61 -65 -392 -333 -400 -324 -17 16
21 60 113 130 141 107 392 384 528 581 80 116 237 365 280 444 16 30 59 106
94 168 36 62 73 138 83 168 l19 55 -22 8 c-20 8 -24 3 -42 -45 -42 -109 -327
-593 -465 -789 -112 -158 -372 -447 -478 -530 -62 -48 -72 -53 -72 -35 0 13
42 67 108 138 310 337 473 562 579 797 29 66 94 188 143 270 88 148 121 221
135 303 6 40 6 42 -18 42 -22 0 -26 -6 -32 -42 -12 -70 -42 -135 -128 -278
-45 -74 -110 -197 -145 -273 -112 -246 -278 -471 -605 -821 l-48 -51 5 34 c3
18 6 39 6 46 0 6 36 52 81 100 251 275 420 536 524 813 27 69 69 153 109 216
85 133 113 197 131 303 19 108 19 103 -9 103 -21 0 -24 -6 -36 -77 -16 -101
-51 -185 -131 -308 -41 -63 -81 -142 -108 -215 -89 -234 -183 -393 -378 -638
-41 -51 -103 -123 -137 -160 l-63 -66 7 46 c5 37 20 62 72 124 215 260 283
377 438 751 49 117 102 232 118 256 66 95 97 183 122 347 13 89 13 90 -14 90
-21 0 -24 -5 -30 -57 -18 -152 -54 -257 -122 -358 -18 -27 -73 -147 -123 -266
-109 -265 -178 -402 -244 -494 -57 -79 -228 -295 -234 -295 -1 0 -3 18 -3 39
0 33 11 53 73 133 41 52 101 143 135 204 63 113 202 418 299 654 30 74 65 155
78 180 27 54 51 147 66 256 14 96 7 134 -21 134 -17 0 -20 -7 -20 -51 0 -85
-38 -248 -80 -339 -21 -47 -59 -134 -83 -195 -85 -206 -229 -520 -285 -620
-31 -55 -83 -135 -116 -178 l-61 -77 -3 39 c-3 32 6 54 54 132 57 94 217 423
314 646 61 138 152 424 175 549 25 130 4 220 -44 194 -20 -10 -20 -12 -5 -42
12 -24 15 -46 10 -92 -13 -120 -104 -416 -186 -600 -159 -360 -347 -726 -364
-709 -3 3 -6 26 -6 49 0 34 21 84 104 251 218 436 248 512 328 833 59 236 63
305 26 373 -25 44 -36 51 -57 38 -13 -8 -10 -18 13 -61 35 -64 34 -77 -28
-330 -68 -279 -111 -391 -278 -730 l-151 -305 -10 50 -9 50 110 220 c153 309
205 459 277 807 45 216 45 251 -1 339 -36 68 -50 79 -71 58 -8 -8 0 -32 30
-87 l41 -76 -33 -160 c-43 -215 -91 -397 -140 -532 -54 -153 -243 -531 -253
-507 -17 44 -6 86 48 195 121 241 216 550 274 886 29 172 27 193 -23 286 -49
92 -68 109 -94 83 -16 -16 -16 -18 9 -44 40 -43 78 -127 78 -173 0 -50 -33
-238 -67 -380 -61 -259 -128 -451 -218 -628 l-54 -107 0 61 c-1 50 7 80 38
156 95 227 197 634 221 881 l11 118 -36 73 c-20 41 -45 82 -56 92 -18 16 -21
16 -36 2 -14 -15 -13 -19 10 -50 55 -71 69 -121 62 -211 -13 -158 -78 -453
-154 -697 -38 -124 -107 -295 -113 -284 -3 5 -8 29 -12 54 -5 37 1 69 33 170
120 381 161 590 161 821 0 117 -2 134 -24 177 -13 26 -32 55 -42 64 -17 14
-21 15 -38 2 -19 -14 -19 -14 1 -36 36 -40 50 -81 57 -170 13 -166 -50 -496
-160 -838 l-47 -145 -14 55 c-17 62 -19 51 51 300 71 256 90 396 83 621 -5
190 -9 212 -50 256 -15 17 -23 20 -34 12 -18 -16 -17 -25 10 -60 21 -29 22
-42 25 -218 3 -140 0 -215 -13 -292 -18 -115 -69 -325 -113 -464 l-28 -90 -13
63 c-13 60 -13 68 13 165 68 251 89 504 66 771 -14 164 -28 200 -65 172 -18
-13 -18 -17 -7 -37 38 -62 41 -519 4 -704 -24 -116 -73 -298 -79 -291 -3 2
-10 28 -17 58 -10 45 -9 66 6 138 46 225 48 647 2 858 -3 16 -12 22 -30 22
-19 0 -24 -4 -20 -17 23 -79 31 -203 30 -448 -1 -247 -3 -280 -26 -385 -16
-78 -22 -125 -17 -145 5 -16 7 -31 5 -32 -2 -2 -16 36 -31 84 -26 86 -27 89
-16 210 25 284 9 582 -39 707 -28 73 -36 82 -59 67 -12 -8 -10 -21 12 -83 15
-40 31 -111 37 -158 13 -110 13 -414 -1 -554 -9 -101 -9 -117 10 -176 11 -35
19 -65 17 -67 -1 -1 -25 50 -53 115 l-51 117 10 120 c11 139 3 351 -17 447 -7
36 -32 113 -55 172 -32 82 -46 106 -60 106 -30 0 -32 -15 -9 -67 12 -26 36
-93 55 -147 31 -91 34 -112 40 -260 3 -89 2 -212 -3 -275 l-9 -114 49 -111
c46 -103 90 -226 84 -233 -2 -1 -47 98 -100 220 l-97 222 0 178 c1 153 -3 190
-21 255 -30 109 -65 205 -106 295 -32 67 -39 76 -57 71 -12 -4 -22 -8 -24 -9
-2 -2 11 -32 29 -66 17 -35 54 -131 82 -214 l49 -150 2 -195 2 -195 93 -210
c87 -195 141 -334 141 -359 0 -6 -38 77 -84 184 -46 107 -115 265 -155 351
l-71 156 0 90 c0 105 -41 270 -109 441 -38 96 -98 222 -104 222 -2 0 -11 -6
-21 -13z"/>
<path d="M10939 6144 c-11 -14 -3 -24 62 -82 168 -150 190 -183 241 -365 30
-106 36 -117 113 -217 218 -284 267 -373 420 -755 38 -93 72 -174 76 -178 4
-5 16 -6 27 -3 19 6 15 20 -68 224 -152 372 -189 441 -354 660 -80 106 -146
199 -146 206 0 8 -18 69 -40 137 -35 112 -45 131 -98 194 -50 59 -200 195
-215 195 -2 0 -10 -7 -18 -16z"/>
<path d="M10761 6111 c-9 -15 -3 -23 37 -51 64 -46 216 -194 262 -255 21 -29
46 -81 58 -122 16 -51 36 -88 70 -129 26 -32 118 -153 205 -269 158 -209 207
-293 288 -489 45 -107 28 -88 -25 28 -61 133 -289 457 -522 742 -45 55 -104
131 -130 169 -54 77 -183 211 -261 272 -68 53 -141 82 -154 62 -15 -23 -12
-27 61 -64 82 -44 238 -192 315 -300 27 -39 95 -126 150 -195 115 -142 267
-346 375 -500 69 -99 138 -226 128 -236 -3 -2 -31 35 -63 83 -89 134 -276 393
-387 536 -73 94 -123 147 -191 201 -51 41 -109 96 -129 123 -60 79 -191 203
-249 235 -45 25 -176 65 -184 56 -2 -2 -5 -13 -9 -24 -6 -19 -1 -22 53 -33 33
-7 82 -24 108 -38 54 -29 183 -150 244 -230 23 -29 82 -86 133 -126 71 -57
116 -106 202 -218 197 -255 402 -549 384 -549 -19 0 -62 51 -150 180 -243 355
-296 414 -534 592 -49 37 -129 110 -178 162 -110 117 -162 150 -276 175 -162
35 -162 35 -162 8 0 -22 7 -25 113 -47 139 -29 184 -55 293 -174 43 -48 122
-119 174 -158 235 -178 301 -250 532 -588 84 -122 82 -119 59 -113 -11 3 -41
37 -67 76 -197 299 -262 364 -659 659 -49 37 -103 83 -118 102 -47 60 -133
110 -227 134 -97 24 -260 55 -265 50 -1 -2 -5 -13 -9 -24 -6 -19 -2 -22 41
-28 26 -4 100 -19 163 -32 130 -29 204 -66 254 -128 17 -21 108 -96 201 -167
286 -214 361 -285 471 -438 112 -158 120 -171 102 -171 -7 0 -38 37 -68 83
-30 45 -84 111 -120 145 -89 87 -317 269 -544 436 -210 154 -239 167 -445 210
-173 36 -212 40 -222 24 -18 -27 -8 -36 54 -42 78 -9 269 -51 340 -75 89 -31
516 -349 749 -558 70 -62 165 -179 155 -190 -4 -4 -22 10 -214 177 -216 188
-449 364 -580 439 -103 58 -205 95 -368 134 -114 28 -160 33 -257 29 -55 -2
-58 -3 -58 -28 l0 -27 69 7 c134 12 417 -62 576 -151 160 -89 496 -349 688
-531 l67 -64 -37 7 c-27 5 -64 30 -133 89 -390 337 -548 437 -854 538 -218 71
-301 81 -458 52 -83 -15 -88 -18 -88 -41 0 -21 4 -24 23 -20 142 35 277 33
409 -7 173 -51 338 -119 440 -178 96 -57 296 -210 485 -372 82 -70 82 -71 53
-74 -25 -3 -43 7 -98 55 -298 262 -406 327 -777 468 -204 78 -291 98 -384 90
-69 -6 -261 -39 -303 -51 -17 -5 -25 -34 -13 -46 3 -3 56 6 118 19 176 36 257
40 351 14 193 -53 515 -187 636 -266 93 -60 384 -294 376 -303 -14 -14 -74 17
-137 72 -170 145 -291 209 -675 361 -325 129 -333 129 -707 59 -131 -25 -137
-27 -131 -48 4 -11 7 -22 8 -23 1 -2 69 11 152 27 178 36 341 48 410 31 58
-15 384 -142 544 -213 121 -54 281 -156 365 -233 l50 -46 -34 7 c-19 3 -73 33
-120 65 -94 65 -298 159 -641 297 l-215 87 -110 -1 c-158 -3 -562 -74 -572
-102 -13 -32 15 -33 138 -8 168 35 382 66 451 66 43 0 86 -11 175 -44 334
-125 638 -262 747 -335 42 -29 76 -53 76 -55 0 -1 -21 0 -47 4 -27 4 -111 36
-193 74 -331 156 -572 252 -715 285 -131 31 -113 31 -370 -4 -164 -23 -261
-44 -350 -75 -65 -23 -79 -31 -77 -46 2 -11 6 -21 8 -23 2 -2 48 10 102 27
108 36 198 53 414 81 l147 19 104 -23 c144 -33 444 -154 775 -313 l103 -50
-53 -6 c-50 -6 -60 -4 -179 53 -357 169 -523 227 -773 267 -95 15 -124 16
-217 6 -231 -26 -377 -63 -544 -137 -56 -25 -61 -30 -46 -54 7 -11 30 -5 122
32 150 60 197 72 368 97 176 26 201 26 326 6 224 -37 440 -114 770 -275 l100
-49 -60 -1 c-49 -1 -74 5 -131 33 -184 88 -309 137 -419 164 -125 32 -393 79
-499 89 -87 8 -275 -21 -392 -61 -150 -50 -354 -137 -354 -150 1 -38 17 -36
151 20 206 85 293 113 400 129 138 21 180 19 389 -15 309 -51 424 -87 702
-221 l77 -37 -47 -5 c-41 -5 -60 0 -142 38 -161 73 -303 107 -747 179 -245 40
-274 39 -454 -20 -134 -43 -481 -186 -486 -199 -1 -5 1 -16 6 -24 7 -11 52 4
232 77 396 160 417 163 676 122 423 -68 598 -109 742 -176 l85 -39 -36 -8
c-28 -7 -63 -1 -164 27 -158 43 -315 75 -617 126 -347 58 -334 57 -457 17
-112 -37 -465 -176 -567 -223 -55 -26 -60 -31 -53 -51 9 -22 9 -22 102 18 262
115 601 239 650 239 31 0 454 -70 639 -105 154 -30 399 -95 399 -106 0 -4 -29
-11 -65 -14 -51 -6 -89 -2 -182 18 -356 78 -642 126 -807 137 l-139 9 -173
-64 c-222 -82 -428 -167 -523 -214 -74 -38 -74 -38 -54 -58 19 -19 19 -20 -74
-69 -93 -49 -101 -57 -83 -84 7 -11 -5 -21 -53 -47 -33 -18 -69 -33 -78 -33
-52 0 -39 -23 260 -470 324 -486 488 -720 656 -935 107 -137 114 -150 270
-470 241 -498 546 -1105 622 -1240 62 -109 74 -124 137 -170 38 -27 166 -122
285 -209 232 -171 311 -214 334 -182 12 16 16 16 67 -3 97 -35 142 -44 151
-30 5 9 30 6 108 -15 77 -20 104 -24 118 -16 14 9 40 5 113 -14 68 -19 96 -22
101 -14 5 8 28 7 86 -6 43 -9 97 -17 118 -16 22 0 76 -2 120 -5 44 -3 112 -7
150 -10 39 -2 97 -7 131 -11 53 -6 62 -4 68 11 8 21 -8 35 -42 35 -13 0 -42 5
-65 11 -39 10 -49 20 -148 162 -233 332 -330 491 -542 890 l-94 177 -255 268
c-429 450 -590 637 -888 1034 -52 70 -100 127 -106 127 -6 1 -17 -5 -23 -13
-9 -10 17 -50 122 -187 319 -418 425 -541 848 -985 208 -218 274 -294 298
-342 167 -331 365 -662 573 -960 64 -91 115 -168 114 -170 -2 -1 -43 7 -93 19
-73 18 -93 27 -109 50 -221 316 -331 499 -599 1001 l-147 276 -142 149 c-330
346 -532 587 -921 1099 -140 185 -162 210 -178 200 -9 -6 -15 -17 -12 -23 5
-16 178 -246 344 -458 310 -399 418 -524 734 -858 l138 -145 141 -264 c258
-483 411 -740 576 -967 18 -24 30 -46 28 -48 -4 -4 -154 36 -176 47 -27 14
-154 210 -280 430 -106 186 -421 764 -491 902 -13 25 -85 113 -160 195 -204
221 -557 661 -932 1161 -124 164 -140 181 -157 172 -11 -6 -20 -13 -20 -16 0
-7 303 -406 499 -659 242 -310 421 -526 570 -690 135 -148 139 -153 241 -345
260 -490 494 -906 582 -1035 30 -44 63 -92 73 -107 l17 -28 -54 16 c-111 33
-153 54 -169 81 -9 16 -73 127 -144 248 -144 248 -355 633 -528 960 -102 194
-129 235 -223 350 -422 513 -1031 1302 -1016 1317 7 6 493 156 540 166 27 6
35 17 27 40 -5 17 -30 11 -294 -68 -158 -48 -293 -90 -299 -94 -10 -6 -28 11
-20 20 2 2 144 45 314 95 170 51 339 101 377 112 50 15 67 25 67 38 0 10 -4
20 -10 24 -5 3 -89 -19 -187 -49 -98 -30 -279 -84 -402 -120 -123 -36 -225
-67 -227 -69 -2 -1 -1 -13 3 -26 4 -14 11 -20 21 -16 11 4 12 2 4 -8 -19 -23
598 -832 1082 -1417 63 -77 107 -144 163 -250 210 -400 430 -798 605 -1098 65
-111 118 -204 118 -207 0 -12 -91 33 -152 74 -66 45 -68 49 -191 261 -211 364
-394 702 -550 1013 l-149 299 -172 212 c-193 239 -537 679 -671 861 -102 137
-264 371 -272 391 -4 11 12 14 80 14 72 0 114 8 299 60 119 33 314 90 434 126
121 36 270 81 332 99 62 18 116 35 119 38 2 3 2 15 -2 26 -6 19 -8 19 -58 4
-29 -8 -207 -61 -397 -118 -570 -170 -629 -185 -758 -185 l-110 0 -5 -26 c-4
-21 15 -55 91 -168 171 -252 516 -704 855 -1120 186 -229 188 -232 275 -411
153 -311 394 -757 634 -1170 93 -162 117 -195 158 -225 27 -19 47 -37 44 -39
-9 -10 -71 27 -194 118 l-135 98 -133 234 c-218 383 -343 618 -522 988 l-169
350 -139 173 c-369 461 -566 723 -772 1029 l-151 224 283 6 283 6 220 65 c452
135 603 178 719 202 65 14 121 27 123 30 3 2 2 13 -1 24 -6 19 -9 19 -139 -8
-73 -15 -226 -55 -342 -90 -115 -34 -302 -89 -415 -121 l-205 -59 -267 0
c-248 1 -267 -1 -270 -17 -2 -14 -9 -9 -26 19 -21 33 -25 36 -43 25 -10 -6
-17 -18 -14 -26 12 -31 366 -548 474 -691 139 -186 361 -471 522 -672 l118
-146 165 -342 c176 -364 318 -633 530 -1004 l133 -231 121 -89 c68 -49 121
-91 118 -93 -9 -9 -85 36 -162 94 -43 33 -131 97 -194 142 -130 93 -110 65
-305 417 -149 267 -161 292 -431 849 l-213 440 -113 144 c-284 364 -371 478
-492 651 -145 206 -466 689 -466 700 0 21 716 18 982 -5 56 -5 83 -1 175 26
235 69 329 92 608 149 454 93 433 87 427 116 -3 17 -9 23 -21 20 -24 -8 -383
-83 -551 -116 -80 -15 -242 -55 -361 -89 l-216 -61 -214 10 c-238 12 -727 14
-824 4 -55 -6 -64 -10 -67 -29 -3 -15 48 -101 184 -306 327 -491 443 -652 756
-1047 l145 -183 207 -427 c271 -559 299 -614 444 -876 198 -356 173 -322 326
-433 204 -149 250 -183 250 -188 0 -17 -100 48 -296 192 -126 92 -252 184
-280 204 -45 32 -62 57 -136 190 -90 161 -306 593 -593 1184 -170 349 -170
349 -291 505 -175 225 -353 478 -654 930 -265 398 -260 390 -241 390 5 0 13
-9 16 -21 5 -14 13 -19 25 -16 12 3 22 -3 29 -20 9 -20 14 -22 32 -12 12 6 19
7 16 1 -4 -5 -1 -17 6 -26 12 -16 20 -14 102 25 l90 41 390 -6 c215 -3 464
-10 554 -16 l165 -10 110 30 c61 16 194 46 296 65 190 37 690 142 724 152 14
4 17 11 13 33 -6 27 -4 28 46 34 84 11 99 17 92 34 -9 23 13 32 78 32 54 0 57
1 57 25 0 24 2 25 65 25 62 0 65 1 65 24 0 22 5 24 64 31 56 6 65 9 68 28 3
20 10 22 71 25 60 3 67 5 67 24 0 19 4 20 57 15 41 -4 60 -2 67 7 8 10 25 12
64 7 39 -6 55 -4 60 5 5 10 22 11 65 5 46 -6 57 -5 57 6 0 12 12 13 65 8 48
-6 65 -4 65 5 0 9 15 10 58 5 54 -6 59 -5 68 16 9 20 11 19 24 -20 11 -35 17
-40 34 -35 12 4 23 8 25 10 5 5 -80 214 -139 338 -28 61 -79 148 -113 195 -90
126 -232 315 -303 403 -48 60 -67 94 -84 150 -25 81 -72 149 -178 254 -67 67
-188 164 -203 164 -5 0 -13 -8 -18 -19z m-1526 -1502 c189 -31 352 -63 545
-104 63 -14 131 -26 150 -27 26 -2 13 -8 -57 -22 l-91 -18 -149 31 c-366 76
-469 91 -703 102 l-226 10 -135 -50 c-185 -68 -331 -127 -391 -157 -27 -14
-52 -23 -54 -21 -10 10 257 123 581 246 l130 50 110 -5 c61 -3 191 -19 290
-35z m-55 -105 c58 -8 218 -38 357 -65 l252 -51 125 27 c69 15 131 25 137 23
6 -2 -80 -23 -192 -45 l-204 -42 -195 40 c-219 44 -333 55 -665 65 l-230 6
-155 -57 c-85 -32 -172 -66 -193 -77 -22 -11 -41 -17 -43 -15 -8 7 145 73 326
140 96 35 182 67 190 71 25 10 379 -4 490 -20z m-162 -105 c163 -8 235 -18
418 -54 l221 -43 264 54 c145 30 271 53 279 52 14 -3 -486 -109 -613 -130 -58
-10 -82 -8 -175 10 -148 30 -295 40 -672 48 l-325 6 -80 -30 c-44 -17 -111
-44 -149 -61 -38 -17 -71 -30 -73 -28 -5 6 98 51 282 123 l160 63 133 1 c74 0
222 -5 330 -11z m1242 -44 c-229 -53 -826 -168 -870 -167 -30 0 -118 5 -195
11 -77 6 -313 16 -525 22 l-385 10 -69 -31 c-38 -17 -71 -29 -73 -27 -4 5 128
63 222 98 59 22 64 22 400 16 369 -7 478 -15 655 -48 l115 -22 285 58 c157 32
321 66 365 75 44 10 91 18 105 18 14 0 0 -6 -30 -13z m85 -41 c-17 -6 -416
-90 -640 -134 -115 -22 -261 -54 -324 -71 l-115 -30 -200 11 c-111 6 -361 13
-556 17 -353 6 -355 6 -398 -16 -24 -12 -46 -20 -48 -18 -3 2 48 28 113 57
l118 52 425 -12 c234 -6 484 -17 555 -24 l130 -13 225 43 c124 24 326 66 450
93 191 41 303 61 265 45z"/>
<path d="M4962 5871 c-10 -6 12 -55 89 -202 163 -312 243 -459 392 -719 173
-301 316 -595 647 -1335 57 -126 162 -361 234 -521 l131 -290 310 -300 c171
-166 431 -424 578 -574 246 -251 269 -272 284 -257 15 14 13 20 -25 64 -38 45
-722 728 -988 986 l-121 118 -138 307 c-386 859 -626 1380 -722 1563 -27 52
-103 189 -170 304 -126 220 -311 562 -407 753 -54 108 -66 121 -94 103z"/>
<path d="M5213 5729 c-12 -12 -16 -4 180 -369 108 -201 262 -473 409 -720 89
-152 206 -396 546 -1150 143 -316 291 -642 330 -725 l70 -150 483 -481 c266
-264 517 -511 557 -548 71 -66 74 -67 93 -50 19 17 18 19 -54 84 -40 37 -291
285 -558 551 l-486 484 -88 190 c-48 105 -193 424 -322 710 -354 785 -434 949
-576 1190 -157 267 -344 601 -461 828 -48 92 -93 167 -100 167 -7 0 -17 -5
-23 -11z"/>
<path d="M5468 5587 c-18 -12 -28 9 130 -282 102 -188 292 -519 439 -765 143
-238 152 -255 469 -952 111 -245 276 -605 365 -800 l162 -353 336 -338 c295
-297 725 -706 751 -715 5 -2 13 6 19 16 9 18 -14 43 -207 220 -119 110 -361
346 -538 524 l-321 323 -40 90 c-23 50 -96 209 -163 355 -67 146 -209 456
-315 690 -318 699 -326 716 -502 1011 -183 306 -418 721 -502 887 -29 56 -56
102 -59 101 -4 0 -15 -5 -24 -12z"/>
<path d="M5718 5447 c-15 -10 -15 -14 4 -51 84 -166 347 -622 588 -1021 132
-217 180 -309 295 -560 76 -165 270 -588 432 -940 l294 -640 197 -198 c108
-109 278 -274 377 -365 99 -91 244 -227 323 -300 119 -113 145 -132 157 -122
30 25 63 -9 -405 422 -129 119 -319 301 -422 405 l-186 188 -285 620 c-157
341 -351 764 -432 940 -121 265 -171 359 -284 545 -216 353 -549 932 -608
1055 -18 38 -20 39 -45 22z"/>
<path d="M5961 5301 c-11 -7 12 -55 109 -227 142 -254 378 -650 560 -944 137
-219 125 -195 779 -1615 l222 -480 72 -74 c40 -40 171 -164 292 -275 219 -200
497 -458 587 -544 40 -38 49 -43 63 -32 8 7 15 16 15 20 0 8 -242 236 -640
602 -135 124 -268 250 -297 279 -49 51 -73 100 -416 844 -521 1129 -507 1099
-587 1225 -170 267 -541 895 -690 1168 -35 62 -43 69 -69 53z"/>
<path d="M6227 5149 c-9 -6 -17 -14 -17 -19 0 -30 541 -936 765 -1280 72 -110
126 -218 330 -660 495 -1075 616 -1336 623 -1345 4 -6 52 -50 107 -99 138
-124 558 -511 716 -662 71 -68 134 -124 138 -124 5 0 15 7 22 16 12 15 7 23
-42 68 -31 28 -159 148 -285 266 -126 118 -317 294 -424 391 l-195 177 -212
458 c-117 253 -279 605 -361 784 -235 510 -303 646 -387 775 -171 262 -512
827 -685 1135 -74 132 -73 130 -93 119z"/>
<path d="M6481 4971 c-26 -17 437 -790 772 -1291 95 -142 149 -249 369 -730
434 -949 592 -1278 627 -1302 23 -16 395 -357 596 -547 77 -73 174 -159 216
-191 74 -57 77 -59 93 -41 17 18 15 21 -50 70 -37 29 -158 136 -268 240 -189
176 -387 359 -519 478 -54 49 -66 69 -172 285 -62 128 -202 427 -310 663 -423
924 -427 932 -565 1140 -228 342 -453 707 -671 1087 -46 81 -88 148 -94 148
-5 0 -16 -4 -24 -9z"/>
<path d="M6747 4798 c-14 -12 -12 -20 25 -83 231 -397 471 -779 711 -1132
l165 -242 165 -358 c90 -197 209 -455 263 -573 54 -118 176 -370 270 -560
l171 -345 134 -121 c74 -67 199 -183 279 -258 80 -75 214 -189 297 -253 129
-97 155 -114 168 -103 8 7 15 16 15 20 0 4 -62 54 -137 111 -76 56 -230 189
-343 294 -113 106 -243 225 -288 266 l-84 74 -113 225 c-158 316 -280 573
-531 1120 l-217 475 -202 300 c-276 408 -470 719 -676 1077 -24 43 -47 78 -50
78 -3 0 -13 -6 -22 -12z"/>
<path d="M7003 4633 c-7 -2 -13 -9 -13 -14 0 -10 189 -323 315 -522 104 -165
375 -571 528 -791 104 -150 119 -178 293 -556 100 -219 295 -625 432 -902
l248 -503 178 -165 c98 -91 207 -189 244 -218 119 -94 391 -292 401 -292 6 0
14 7 19 17 8 13 -23 40 -177 154 -210 155 -247 186 -467 389 l-157 145 -250
505 c-137 278 -309 636 -382 795 -73 160 -155 337 -182 395 -34 72 -109 192
-235 375 -245 356 -460 687 -628 963 -75 124 -140 227 -145 228 -6 1 -16 0
-22 -3z"/>
<path d="M7254 4456 c-3 -8 33 -78 82 -158 114 -187 550 -844 747 -1125 133
-190 166 -245 230 -385 126 -272 226 -478 514 -1058 l275 -555 97 -87 c119
-107 142 -125 437 -342 182 -134 241 -173 251 -164 7 6 13 16 13 22 -1 6 -120
99 -267 206 -146 107 -316 240 -377 295 l-111 100 -102 200 c-149 292 -577
1170 -677 1387 -72 156 -104 212 -197 345 -262 370 -621 910 -796 1196 -79
129 -106 157 -119 123z"/>
<path d="M7517 4296 c-16 -13 -11 -24 74 -157 243 -381 585 -886 816 -1207
122 -169 130 -184 330 -595 112 -232 305 -624 429 -872 l225 -450 117 -86
c460 -339 614 -451 615 -448 2 2 8 11 15 20 11 15 -11 34 -175 155 -103 76
-266 196 -360 266 l-173 127 -206 413 c-114 227 -307 618 -429 868 -211 435
-226 462 -336 615 -257 358 -611 881 -813 1200 -107 170 -106 168 -129 151z"/>
<path d="M9915 4103 c-222 -47 -374 -86 -701 -182 l-201 -58 -299 10 c-164 6
-348 7 -407 3 -102 -8 -108 -9 -105 -29 3 -20 7 -20 238 -19 129 1 312 -2 405
-6 l170 -9 323 93 c182 53 428 115 564 143 132 28 242 52 244 54 5 5 -8 47
-15 46 -3 -1 -100 -22 -216 -46z"/>
<path d="M9525 3798 c-104 -32 -336 -101 -514 -152 -179 -51 -326 -97 -328
-102 -1 -5 1 -15 6 -23 8 -12 58 -1 298 67 313 89 730 216 740 226 3 3 2 14
-3 24 -8 18 -20 16 -199 -40z"/>
<path d="M2202 3748 c-365 -494 -520 -728 -610 -923 -52 -113 -62 -127 -166
-235 -189 -198 -264 -312 -351 -533 -33 -83 -37 -100 -24 -108 7 -5 18 -7 23
-6 5 2 30 55 56 117 25 63 58 138 72 165 38 74 156 223 273 344 96 99 106 114
160 231 95 202 179 331 513 788 131 180 161 227 151 238 -6 8 -15 14 -20 14
-4 0 -39 -42 -77 -92z"/>
<path d="M14099 3689 c-53 -60 -205 -186 -260 -215 -16 -8 -95 -36 -176 -63
l-149 -49 -213 -170 -212 -170 -360 -182 c-197 -99 -359 -184 -359 -188 0 -4
4 -14 10 -22 7 -12 48 5 232 95 449 220 488 243 720 428 l211 168 152 50 c102
33 171 61 207 86 94 64 183 139 236 200 50 58 51 61 33 77 -18 16 -21 14 -72
-45z"/>
<path d="M2106 3479 c-244 -338 -289 -413 -452 -762 -70 -151 -94 -191 -147
-251 -152 -171 -194 -236 -275 -421 -34 -79 -104 -277 -99 -280 1 -2 12 -6 24
-9 20 -6 24 -1 44 66 23 77 97 256 143 347 33 64 103 156 203 266 40 44 73 83
73 87 0 3 51 114 113 245 131 275 207 400 421 694 119 163 153 216 144 226 -6
7 -16 13 -22 13 -6 0 -83 -100 -170 -221z"/>
<path d="M2186 3456 c-172 -236 -337 -540 -526 -971 -38 -86 -70 -141 -115
-197 -98 -120 -218 -377 -290 -618 -25 -83 -23 -100 10 -100 6 0 34 74 63 163
68 207 176 427 261 531 46 56 75 106 117 203 166 381 354 733 494 923 85 116
76 61 -13 -78 -116 -182 -367 -694 -487 -996 -28 -70 -71 -163 -95 -205 -68
-117 -138 -271 -189 -416 -38 -109 -46 -142 -46 -203 0 -56 3 -74 15 -79 23
-8 26 -2 35 89 14 139 105 371 236 598 23 41 63 128 89 193 92 240 377 829
469 972 43 66 45 68 46 38 0 -21 -53 -139 -159 -353 -196 -395 -291 -618 -335
-783 -25 -91 -54 -167 -104 -269 -116 -236 -139 -311 -152 -480 -5 -79 -10
-146 -10 -150 0 -5 11 -8 25 -8 23 0 25 3 25 53 1 192 37 322 160 572 50 100
78 174 101 260 41 158 127 361 312 739 145 295 152 307 160 275 7 -31 -4 -58
-107 -271 -202 -416 -235 -503 -334 -884 -22 -82 -47 -166 -57 -184 -10 -19
-40 -86 -66 -149 -55 -130 -66 -189 -76 -423 l-6 -148 25 0 25 0 6 163 c9 226
16 263 82 412 70 158 78 181 154 462 67 245 126 391 281 706 63 127 96 184
101 175 17 -27 7 -61 -52 -179 -115 -231 -167 -365 -238 -613 -38 -133 -84
-307 -102 -386 -18 -80 -47 -178 -66 -219 -49 -108 -66 -234 -67 -476 -1 -196
-1 -200 20 -203 21 -3 21 0 27 215 6 246 21 345 66 444 16 36 44 126 61 200
99 432 196 723 332 994 45 89 46 89 53 57 6 -27 -3 -54 -49 -156 -114 -254
-301 -956 -361 -1353 -21 -145 -20 -413 3 -472 18 -47 29 -56 51 -42 11 7 10
20 -9 76 -21 63 -22 79 -16 209 11 217 56 473 151 846 97 380 234 785 257 762
19 -19 6 -84 -60 -297 -140 -455 -208 -738 -217 -910 -4 -66 -13 -158 -20
-205 -23 -134 -30 -350 -15 -407 20 -77 71 -193 83 -193 36 1 36 17 -1 105
l-37 90 1 155 c1 85 7 182 13 215 7 33 16 125 21 205 10 151 35 278 111 561
49 184 158 541 168 552 5 4 14 -12 20 -36 12 -41 10 -53 -27 -173 -155 -499
-178 -618 -202 -1044 -6 -102 -14 -234 -19 -295 -9 -130 4 -190 75 -345 42
-93 56 -108 82 -91 11 6 6 23 -23 81 -20 39 -50 113 -66 163 l-30 91 15 196
c8 107 20 281 27 385 10 162 17 214 51 350 38 155 108 408 146 529 l19 59 16
-46 c15 -44 14 -49 -14 -144 -62 -205 -117 -431 -123 -503 -26 -300 -35 -465
-38 -665 l-2 -230 28 -80 c27 -75 113 -263 134 -294 7 -10 14 -11 30 -2 21 11
21 12 -13 74 -44 82 -99 217 -119 293 -14 53 -15 98 -6 345 16 512 38 664 147
1019 l26 85 14 -48 c13 -46 13 -54 -21 -170 -50 -178 -82 -492 -92 -897 -6
-238 -5 -261 15 -344 39 -161 124 -347 188 -409 38 -36 40 -37 56 -19 16 17
15 20 -19 53 -57 54 -136 226 -174 376 -32 125 -26 481 15 897 13 133 64 388
80 404 2 2 9 -15 16 -38 10 -34 10 -64 0 -154 -34 -306 -41 -391 -52 -631 -11
-250 -11 -265 10 -395 33 -203 108 -410 174 -479 30 -31 136 -107 141 -99 1 1
7 11 15 20 11 15 7 20 -31 44 -72 44 -109 86 -143 159 -81 176 -125 380 -125
580 0 201 35 645 67 849 l6 39 27 -54 c25 -49 27 -60 19 -114 -14 -105 -38
-395 -44 -550 -5 -115 -3 -178 10 -270 46 -332 111 -540 191 -617 22 -20 77
-59 124 -87 77 -45 86 -48 98 -34 6 9 12 20 12 23 0 4 -32 24 -72 46 -121 66
-159 108 -202 221 -42 109 -89 323 -108 491 -9 89 -9 156 0 325 12 197 39 477
47 486 3 2 15 -20 27 -49 23 -51 23 -56 12 -177 -22 -222 -27 -383 -15 -493
16 -140 47 -318 82 -467 62 -261 85 -292 313 -413 98 -53 105 -54 119 -16 1 5
21 0 42 -11 66 -33 132 -48 149 -34 11 9 24 10 53 2 50 -14 53 -14 53 4 0 8 1
15 3 15 1 0 23 -7 50 -15 42 -13 47 -12 47 2 0 11 6 14 25 9 14 -3 36 -9 50
-12 17 -4 27 -1 31 9 5 14 10 14 50 0 50 -17 49 -17 58 13 5 18 0 23 -33 32
-34 11 -46 24 -97 105 -97 154 -231 430 -269 551 -32 103 -72 312 -62 322 2 3
21 -19 40 -48 23 -34 48 -91 68 -157 45 -152 155 -391 264 -578 57 -96 167
-243 179 -239 5 1 14 9 19 18 8 12 -5 34 -55 99 -130 169 -307 522 -364 726
-15 54 -37 112 -49 128 -45 63 -35 57 41 -24 71 -76 83 -95 121 -190 66 -165
206 -437 273 -531 73 -103 206 -226 227 -209 22 19 15 32 -53 89 -36 30 -93
93 -127 140 -69 96 -211 370 -277 535 -40 102 -50 117 -135 210 -50 55 -102
116 -114 135 l-23 35 38 -40 c20 -22 60 -65 89 -95 28 -30 88 -90 134 -133 76
-73 86 -86 122 -174 132 -316 227 -448 459 -638 67 -55 72 -57 88 -41 16 16
15 19 -13 43 -16 14 -79 68 -139 121 -151 134 -227 249 -346 527 l-47 110
-169 170 c-93 94 -183 191 -200 215 -18 25 84 -70 225 -210 253 -251 259 -257
299 -343 79 -168 136 -249 266 -375 118 -114 285 -252 304 -252 8 0 22 22 22
35 0 1 -39 34 -87 72 -49 38 -141 120 -206 182 -127 123 -176 193 -264 378
-48 99 -49 101 -217 258 -162 153 -330 329 -377 397 -13 18 43 -34 123 -117
80 -82 234 -233 342 -335 176 -165 203 -194 246 -270 78 -136 292 -351 526
-528 79 -59 82 -61 99 -42 16 18 13 21 -72 85 -223 168 -439 386 -516 521 -41
71 -74 107 -282 304 -256 243 -375 363 -460 469 -75 93 -69 98 9 8 108 -124
574 -574 696 -673 63 -51 141 -123 172 -161 73 -87 256 -266 371 -362 108 -90
253 -160 275 -133 6 9 12 19 12 23 0 4 -36 21 -81 39 -59 24 -105 53 -170 107
-124 102 -277 251 -357 346 -37 44 -121 124 -187 177 -123 100 -638 603 -738
720 -45 52 -58 63 -68 53 -20 -20 -25 -17 -59 37 -32 50 -44 58 -55 40 -12
-19 -25 -10 -57 40 -18 27 -37 48 -43 46 -5 -2 -18 -7 -27 -11 -13 -5 -25 6
-50 44 -19 29 -38 49 -45 46 -7 -3 -19 -7 -25 -10 -8 -3 -27 18 -47 49 -24 37
-40 52 -51 49 -13 -3 -24 11 -43 57 -22 49 -31 60 -45 56 -14 -5 -23 7 -46 59
-24 55 -31 63 -45 55 -15 -7 -22 2 -48 60 -25 55 -34 68 -49 64 -15 -4 -26 8
-52 61 -18 36 -36 64 -41 61 -5 -3 -16 22 -26 57 -9 34 -23 67 -30 72 -7 6
-23 43 -35 83 -12 39 -26 70 -32 69 -5 -1 -19 27 -30 63 -11 36 -28 72 -37 81
-10 9 -26 45 -35 80 -10 35 -22 69 -26 74 -7 8 -29 103 -47 208 -3 15 -12 27
-19 27 -17 0 -18 12 -2 28 8 8 8 15 -2 27 -7 8 -16 15 -20 15 -5 0 -42 -47
-84 -104z m749 -1966 c1 -204 5 -256 28 -396 32 -195 59 -322 99 -474 36 -135
66 -179 158 -236 33 -20 60 -39 60 -41 0 -6 -122 61 -165 90 -91 61 -122 118
-169 317 -86 366 -101 581 -65 936 l12 117 21 -39 c19 -36 20 -57 21 -274z
m86 123 c15 -33 24 -85 30 -168 26 -342 98 -709 177 -903 l46 -112 75 -50
c104 -69 79 -62 -47 12 -139 84 -159 110 -200 270 -86 337 -138 706 -121 873
4 44 8 90 8 103 1 33 10 27 32 -25z m113 -88 c34 -51 37 -64 51 -182 46 -415
107 -648 228 -870 42 -77 60 -99 95 -120 23 -14 42 -27 42 -29 0 -8 -85 39
-160 88 l-75 49 -42 102 c-62 148 -121 418 -157 712 -16 133 -29 305 -23 305
2 0 21 -25 41 -55z m129 -91 c33 -46 38 -62 52 -165 44 -323 82 -459 182 -654
69 -136 152 -278 167 -287 6 -4 7 -8 1 -8 -5 0 -44 21 -85 46 -72 43 -79 51
-124 132 -105 190 -160 383 -205 707 -30 222 -38 296 -31 288 4 -5 23 -31 43
-59z m187 -266 c10 -68 36 -172 56 -233 41 -120 180 -402 264 -533 29 -46 50
-85 47 -88 -9 -9 -104 36 -124 59 -51 57 -189 326 -239 463 -34 95 -62 228
-89 422 -20 153 -20 153 25 89 37 -51 42 -66 60 -179z"/>
<path d="M14122 3497 c-85 -78 -141 -118 -198 -143 -87 -39 -271 -100 -357
-119 -74 -16 -85 -22 -185 -104 -127 -103 -264 -180 -747 -417 -315 -155 -335
-166 -324 -185 13 -25 15 -23 -41 -41 -33 -11 -46 -21 -48 -36 -3 -16 -14 -24
-45 -32 -65 -17 -66 -18 -60 -38 4 -17 -3 -22 -52 -33 -51 -11 -56 -15 -51
-35 5 -20 1 -24 -31 -33 -21 -6 -44 -11 -51 -11 -7 0 -17 -11 -22 -24 -7 -19
-18 -25 -59 -31 -28 -4 -53 -11 -57 -16 -3 -5 -31 -9 -63 -9 -61 0 -81 -11
-81 -45 0 -22 131 -138 380 -336 165 -132 407 -280 822 -503 68 -36 99 -61
141 -110 103 -122 224 -213 346 -262 36 -14 44 -15 52 -3 5 8 9 17 9 21 0 4
-37 26 -82 48 -45 23 -100 54 -122 70 -40 27 -133 120 -191 191 -19 22 -68 57
-130 89 -512 273 -720 408 -1030 674 -92 79 -101 92 -57 83 19 -4 80 -46 154
-108 68 -56 160 -127 206 -156 216 -140 620 -371 849 -487 87 -43 141 -78 168
-106 45 -47 154 -124 230 -162 58 -30 115 -44 115 -30 0 6 2 17 5 24 4 9 -8
17 -37 25 -66 18 -191 97 -266 167 -50 47 -96 78 -182 121 -201 100 -514 278
-775 439 -111 68 -325 229 -325 244 0 18 85 -20 173 -78 383 -251 845 -510
1045 -584 94 -35 139 -58 195 -101 82 -63 179 -115 214 -115 13 0 33 5 44 10
15 9 17 14 7 29 -9 14 -20 18 -42 14 -35 -5 -109 35 -209 114 -42 33 -94 59
-186 93 -134 50 -326 149 -596 307 -215 126 -485 296 -485 305 0 5 18 8 40 8
33 0 64 -15 173 -83 477 -300 695 -410 976 -491 101 -29 135 -44 209 -94 111
-74 131 -79 177 -50 37 24 42 37 23 56 -8 8 -18 7 -38 -5 -37 -22 -64 -13
-151 50 -63 46 -91 58 -189 85 -252 70 -448 164 -845 407 -88 54 -175 107
-193 118 -18 11 -31 21 -30 23 2 1 21 4 43 5 34 2 58 -9 161 -73 400 -250 540
-311 978 -428 84 -22 134 -42 169 -66 73 -50 88 -52 147 -14 51 33 57 45 28
64 -12 7 -24 3 -48 -17 -17 -15 -35 -27 -40 -27 -4 0 -32 16 -61 36 -41 28
-89 46 -199 76 -416 112 -548 170 -924 402 -98 61 -99 61 -68 70 27 7 44 0
164 -72 240 -144 530 -251 949 -351 69 -16 142 -37 162 -47 31 -15 40 -15 68
-4 41 17 89 58 89 76 0 7 -8 18 -18 23 -14 7 -21 5 -30 -9 -6 -11 -25 -26 -42
-35 -26 -13 -34 -14 -57 -2 -16 8 -80 27 -143 41 -394 93 -719 210 -926 334
-91 55 -94 57 -66 65 23 7 50 -1 157 -51 228 -105 674 -244 910 -282 153 -25
170 -25 220 5 51 29 62 51 35 65 -15 8 -24 6 -40 -10 -11 -11 -31 -22 -46 -26
-71 -18 -384 53 -723 165 -176 58 -394 146 -425 172 -4 4 11 11 35 16 38 8 55
5 119 -20 121 -47 378 -132 497 -166 182 -52 304 -71 446 -71 126 0 152 5 190
38 16 14 16 17 1 33 -16 18 -17 18 -40 0 -41 -32 -195 -37 -340 -10 -185 33
-564 150 -784 241 l-34 14 47 14 c48 13 49 12 280 -64 297 -98 435 -126 611
-125 194 1 292 11 313 32 16 16 16 18 1 34 -15 14 -19 14 -34 2 -12 -10 -64
-14 -208 -17 -175 -4 -202 -2 -316 21 -157 32 -535 151 -563 177 -5 4 13 13
40 19 46 11 55 10 147 -23 155 -56 332 -93 481 -101 173 -8 485 10 505 30 13
13 13 17 0 30 -12 12 -23 12 -60 3 -27 -7 -147 -12 -305 -12 -260 0 -260 0
-385 31 -69 18 -170 47 -225 66 l-100 34 49 15 c47 14 55 13 153 -13 186 -50
509 -61 816 -27 104 11 107 12 107 36 0 24 -1 25 -57 18 -223 -27 -449 -33
-642 -17 -96 8 -321 58 -321 71 0 4 22 13 48 22 42 13 65 13 183 2 298 -29
624 -13 750 35 76 29 85 37 70 60 -7 11 -26 8 -102 -19 l-94 -33 -255 -4
c-178 -3 -294 0 -385 10 -129 14 -131 14 -193 -10 -34 -12 -66 -23 -70 -23 -4
0 43 28 105 61 l112 60 128 -12 c81 -7 192 -9 302 -5 171 7 174 8 295 50 200
72 206 75 187 105 -8 12 -18 11 -68 -8 -214 -84 -247 -92 -433 -98 -98 -3
-230 -1 -300 6 l-124 10 -125 -65 c-106 -57 -261 -121 -261 -109 0 2 104 57
232 122 l232 118 205 1 c184 0 214 3 281 23 170 51 391 139 397 158 2 4 -2 15
-7 23 -7 12 -14 13 -37 3 -15 -6 -73 -30 -128 -53 -55 -23 -154 -57 -220 -77
l-120 -35 -189 5 -189 5 -252 -129 c-212 -109 -347 -170 -374 -169 -3 0 136
73 309 161 173 88 334 171 357 185 36 21 54 24 140 24 80 0 122 6 233 36 74
19 184 55 245 79 116 45 265 114 265 122 0 2 -5 13 -10 24 -10 18 -13 18 -78
-15 -237 -119 -497 -196 -662 -196 l-101 0 -157 -84 c-341 -182 -665 -337
-701 -336 -3 0 156 83 354 183 198 101 412 213 475 249 88 50 134 69 195 83
266 57 516 153 616 235 45 37 55 50 47 63 -13 25 -25 21 -81 -26 -94 -79 -408
-194 -632 -233 -22 -3 -96 -38 -165 -77 -154 -87 -807 -419 -875 -445 -142
-54 -76 -16 250 146 466 232 570 291 694 391 95 77 107 84 184 102 203 48 373
117 467 190 138 107 156 125 141 143 -19 23 -27 21 -79 -27z"/>
<path d="M9245 3495 c-22 -8 -102 -33 -178 -56 -126 -39 -137 -44 -131 -63 4
-12 7 -22 8 -23 2 -3 359 106 363 110 5 5 -9 47 -16 46 -3 0 -24 -7 -46 -14z"/>
<path d="M9773 2883 c-7 -2 -13 -9 -13 -14 0 -17 223 -298 356 -449 166 -189
471 -515 710 -760 l191 -195 81 -150 c130 -242 397 -655 602 -933 60 -81 61
-82 105 -82 37 0 45 3 45 19 0 19 -18 31 -48 31 -19 0 -111 124 -304 410 -154
228 -260 400 -363 590 l-78 145 -242 250 c-455 471 -730 775 -914 1013 -56 72
-106 132 -109 131 -4 0 -13 -3 -19 -6z"/>
<path d="M10007 2742 c-15 -16 -7 -27 110 -162 226 -261 495 -550 889 -956
260 -267 277 -287 355 -415 224 -366 491 -758 619 -912 4 -4 14 1 24 11 16 18
14 22 -37 88 -156 200 -433 615 -606 909 -46 77 -89 126 -306 345 -359 363
-699 728 -939 1008 -48 56 -89 102 -90 102 -2 0 -10 -8 -19 -18z"/>
<path d="M10230 2635 c-10 -12 7 -36 106 -147 429 -477 829 -890 1029 -1061
l140 -120 113 -181 c288 -460 528 -786 580 -786 34 0 21 34 -39 98 -102 108
-251 320 -481 686 l-137 218 -143 123 c-197 168 -511 492 -957 983 -100 111
-187 202 -191 202 -4 0 -13 -7 -20 -15z"/>
<path d="M10457 2542 c-15 -16 -8 -26 110 -157 478 -530 659 -707 1033 -1012
l135 -110 129 -204 c71 -112 165 -254 208 -316 86 -122 303 -366 321 -360 6 2
15 10 21 19 8 13 -12 39 -106 136 -138 144 -265 321 -500 701 -29 46 -68 85
-164 163 -371 301 -545 470 -1038 1016 -71 78 -130 142 -131 142 -1 0 -9 -8
-18 -18z"/>
<path d="M10670 2445 c-11 -14 -7 -22 26 -58 22 -23 94 -100 159 -172 315
-342 489 -502 967 -881 126 -100 142 -117 193 -199 188 -301 316 -462 523
-658 49 -47 54 -50 70 -34 15 16 10 24 -94 130 -205 207 -265 285 -457 587
-60 94 -77 113 -169 185 -155 121 -448 366 -583 485 -112 100 -252 244 -504
518 -57 61 -107 112 -111 112 -4 0 -13 -7 -20 -15z"/>
<path d="M10880 2355 c-11 -14 -6 -23 31 -63 25 -26 83 -87 129 -137 162 -174
637 -581 1058 -905 68 -53 93 -80 143 -159 34 -53 95 -137 135 -187 93 -115
317 -358 367 -398 36 -29 38 -29 55 -12 16 17 14 20 -44 74 -154 143 -382 409
-478 560 -54 85 -69 101 -190 194 -454 352 -851 697 -1055 916 -68 72 -127
132 -131 132 -4 0 -13 -7 -20 -15z"/>
<path d="M11097 2262 c-16 -17 -10 -24 116 -139 318 -290 736 -636 1040 -861
105 -77 152 -120 195 -175 153 -197 358 -420 444 -484 47 -34 50 -35 66 -18
16 16 15 18 -13 38 -61 42 -281 276 -398 422 -115 143 -128 155 -281 270 -296
220 -707 561 -996 824 -174 159 -154 144 -173 123z"/>
<path d="M11286 2213 c-4 -9 -1 -22 6 -29 54 -51 331 -289 513 -440 306 -255
499 -398 643 -479 l124 -68 120 -146 c156 -188 267 -297 345 -339 62 -33 62
-33 73 -11 7 11 10 22 8 23 -2 2 -28 16 -58 32 -69 36 -201 169 -340 341
l-105 131 -130 73 c-210 118 -578 408 -1064 837 -57 51 -109 92 -116 92 -7 0
-16 -8 -19 -17z"/>
<path d="M11477 2182 c-17 -19 -8 -28 323 -308 352 -298 473 -381 864 -595 92
-50 105 -61 180 -154 141 -175 239 -259 364 -311 28 -11 37 -12 44 -2 15 25 7
33 -60 66 -94 45 -173 115 -296 262 -100 120 -109 128 -203 179 -428 235 -551
323 -1033 741 -80 69 -150 129 -156 133 -6 3 -18 -1 -27 -11z"/>
<path d="M3559 1814 c-11 -13 20 -48 227 -256 282 -283 454 -432 589 -508 82
-47 112 -71 194 -159 139 -151 284 -277 366 -318 110 -56 278 -115 287 -100
17 26 4 35 -94 72 -57 21 -130 51 -163 68 -76 38 -229 170 -353 306 -83 91
-111 115 -201 167 -150 88 -253 176 -556 476 -149 147 -273 268 -277 268 -3 0
-11 -7 -19 -16z"/>
<path d="M3689 1774 c-11 -13 8 -36 137 -166 244 -245 362 -341 606 -487 206
-123 217 -131 331 -247 154 -157 241 -207 556 -315 85 -29 100 -28 101 7 0 7
-55 30 -122 53 -68 23 -179 69 -248 102 -122 59 -126 62 -252 189 -115 116
-139 136 -260 206 -312 181 -362 220 -638 498 -96 97 -180 176 -186 176 -6 0
-17 -7 -25 -16z"/>
<path d="M3821 1737 c-8 -11 17 -41 117 -138 70 -69 152 -145 182 -171 53 -44
331 -219 555 -348 74 -43 136 -88 190 -140 113 -108 286 -194 590 -295 138
-45 154 -46 155 -10 0 6 -64 32 -143 58 -307 104 -485 193 -569 286 -43 48
-90 81 -251 176 -428 251 -510 310 -707 509 -46 47 -90 86 -96 86 -6 0 -17 -6
-23 -13z"/>
<path d="M3956 1701 c-16 -18 -13 -22 69 -95 96 -86 144 -118 505 -338 522
-318 678 -402 915 -491 120 -45 298 -97 330 -97 11 0 15 7 13 21 -3 19 -21 27
-122 56 -153 43 -371 129 -500 196 -178 94 -694 402 -939 561 -45 29 -121 87
-168 129 -83 73 -87 76 -103 58z"/>
<path d="M4092 1678 c-7 -7 -12 -15 -12 -19 0 -9 399 -263 651 -416 117 -71
197 -112 270 -138 57 -20 172 -70 254 -110 285 -138 475 -201 623 -207 88 -3
92 -2 92 18 0 18 -8 22 -46 28 -26 3 -64 6 -86 6 -88 0 -344 92 -568 203 -69
35 -174 80 -235 102 -118 41 -270 129 -707 407 -120 76 -219 138 -221 138 -2
0 -8 -5 -15 -12z"/>
</g>
</svg>
