<?xml version="1.0" encoding="UTF-8" standalone="no"?>
<!-- Created with Inkscape (http://www.inkscape.org/) -->

<svg
   version="1.1"
   id="svg2"
   xml:space="preserve"
   width="3267.3201"
   height="2178.2134"
   viewBox="0 0 3267.3201 2178.2134"
   sodipodi:docname="contactPageWave.eps"
   xmlns:inkscape="http://www.inkscape.org/namespaces/inkscape"
   xmlns:sodipodi="http://sodipodi.sourceforge.net/DTD/sodipodi-0.dtd"
   xmlns="http://www.w3.org/2000/svg"
   xmlns:svg="http://www.w3.org/2000/svg"><defs
     id="defs6" /><sodipodi:namedview
     id="namedview4"
     pagecolor="#ffffff"
     bordercolor="#666666"
     borderopacity="1.0"
     inkscape:pageshadow="2"
     inkscape:pageopacity="0.0"
     inkscape:pagecheckerboard="0" /><g
     id="g8"
     inkscape:groupmode="layer"
     inkscape:label="ink_ext_XXXXXX"
     transform="matrix(1.3333333,0,0,-1.3333333,0,2178.2133)"><g
       id="g10"
       transform="scale(0.1)"><path
         d="M 0,0 H 24504.9 V 16336.6 H 0 V 0"
         style="fill:#ffffff;fill-opacity:1;fill-rule:nonzero;stroke:none"
         id="path12" /><path
         d="m 10265.9,2571.5 c -59,12.8 -117.1,27 -174.3,42.3 -109.45,29.3 -219.98,64.1 -329.9,103.8 -146.68,53 -295.14,115.8 -434,185.3 -438.26,219.2 -794.28,487.5 -755.4,955.4 24.44,294 121.52,203.3 -43.96,612.2 -182.2,450 -270.81,778.3 733.29,1523.2 846.17,627.91 1117.17,580.8 1410.07,523.2 832.6,-163.73 2639.2,-1028.9 2841.8,-1298.6 29.2,-39 22.4,-37.7 38.3,-179.3 30.1,-266.2 42.1,-495.4 102.7,-703.5 42.9,-147.1 151.4,-290 77.1,-700.2 -40.5,-223.8 -126.2,-455.9 -217.2,-663.4 -137.2,-312.3 -699.9,-1401.4 -983.4,-1576.8 -68.4,-42.2 -140.8,-63.7 -217.8,-63 -293.8,2.8 -591.6,326.1 -885.9,626 -88.8,90.5 -183.4,185.3 -279.1,269.1 -385.9,337.8 -501.6,261.7 -882.3,344.3 z"
         style="fill:none;stroke:#231f20;stroke-width:26.0899;stroke-linecap:butt;stroke-linejoin:miter;stroke-miterlimit:10;stroke-dasharray:none;stroke-opacity:1"
         id="path14" /><path
         d="m 9910.95,2762.4 c -156.82,47.3 -312.88,103.9 -458.7,166.5 -462.8,198.4 -883.22,455 -883.04,941.5 0.15,280.8 107.78,204.5 -139.14,639.6 -294.14,518.3 -475.71,892.6 1123.02,1853.82 107.23,64.47 222.38,129.45 334.39,183.9 369.72,179.71 650.22,369.08 2622.32,-579.62 198.5,-95.5 1051.9,-510.4 1164.9,-701 41.6,-70.2 10.2,-502.2 16.4,-730.8 6.1,-231.1 41,-313.5 54.7,-371.5 82.3,-348.6 -128.8,-834.8 -289.9,-1157.1 -54.6,-109.2 -113.5,-218.9 -172.9,-324.9 -114.6,-204.9 -248.6,-427.2 -371,-618.4 -178.2,-278.2 -329.5,-550.6 -600.1,-571.5 -385.4,-29.7 -773.7,490.1 -1169.3,830.2 -463.9,398.7 -480.2,212.2 -1231.65,439.3 z"
         style="fill:none;stroke:#231f20;stroke-width:26.0899;stroke-linecap:butt;stroke-linejoin:miter;stroke-miterlimit:10;stroke-dasharray:none;stroke-opacity:1"
         id="path16" /><path
         d="m 9894.95,2861.4 c -152.97,44 -308.62,96.9 -455.4,156.7 -481.36,195.8 -870.62,441.5 -870.29,942.2 0.07,126.5 36.33,165.2 -75.56,355 -79.62,135.2 -200.78,284 -297.43,434.4 -355.77,553.5 -167.21,855.1 1034.14,1582.6 929.99,563.25 1129.49,552.74 1491.79,471.68 887,-198.46 3099.2,-1264.08 3116.2,-1511.48 21.8,-314.4 -84.6,-632.5 -89,-938.9 -2.7,-189.9 56.9,-250.3 -23.6,-546.3 -54.6,-201.5 -155.3,-416.1 -252.2,-600.2 -55.7,-105.8 -115.6,-211.9 -175.9,-314.7 -166.5,-283.9 -396.7,-644.8 -571,-900.3 -405.6,-594.4 -792.2,-302.2 -1313.4,181.7 -46.2,42.8 -92.7,86.1 -139.6,128.5 -599.8,542.8 -585.2,331 -1378.75,559.1 z"
         style="fill:none;stroke:#231f20;stroke-width:26.0899;stroke-linecap:butt;stroke-linejoin:miter;stroke-miterlimit:10;stroke-dasharray:none;stroke-opacity:1"
         id="path18" /><path
         d="m 9716.21,3006.2 c -474.63,145.8 -1002.24,358.7 -1119.07,814.6 -81.17,316.7 94.23,244.9 -322.97,734 -683.74,801.5 -713.94,995.7 800.3,1849.98 1259.73,710.76 1306.73,878.32 3578.83,-224.78 170.1,-82.5 1306.9,-634.1 1331.4,-819 44.8,-338.5 -225.1,-833.3 -216.4,-1178.7 2.9,-117.2 -34.2,-248 -75,-357.5 -71.5,-191.5 -185.2,-398.3 -289.7,-574.5 -212.6,-358.7 -704.5,-1095.3 -772.4,-1176.5 -404,-483.1 -834.6,-122.7 -1230.6,221.1 -851.6,739.2 -632.1,388.2 -1684.39,711.3 z"
         style="fill:none;stroke:#231f20;stroke-width:26.0899;stroke-linecap:butt;stroke-linejoin:miter;stroke-miterlimit:10;stroke-dasharray:none;stroke-opacity:1"
         id="path20" /><path
         d="m 10756.4,2860.4 c -158.9,71.7 -246.4,68.8 -378.2,90 -274.6,44.2 -562.22,109.4 -830.08,196 -551.32,178.3 -916.54,396.9 -971.57,879.2 -8.97,78.6 -6.59,142.2 -162.82,330.2 -143.13,172.3 -352.82,365 -519.5,550.8 -619.18,689.9 -238.43,917.3 1087.7,1602.2 1426.77,736.98 1358.87,882.8 3440.97,-88.43 C 12824.5,6233 13436.1,5930.3 13809,5697 c 319.3,-199.6 315.9,-254.9 323.4,-304.6 32.8,-216.9 -124.5,-524.1 -258.3,-848.1 -180.8,-438.1 -57.1,-352.1 -234.8,-714.3 -92.2,-187.8 -225.7,-396.8 -342.8,-573.1 -119.5,-179.9 -255.7,-375.7 -415.5,-608.3 -211.5,-307.7 -433.9,-751.1 -917,-591 -193.5,64.2 -388,213.1 -563.6,353.3 -98.3,78.5 -197.9,160.4 -298,235.3 -106.7,79.8 -224.6,159.4 -346,214.2 z"
         style="fill:none;stroke:#231f20;stroke-width:26.0899;stroke-linecap:butt;stroke-linejoin:miter;stroke-miterlimit:10;stroke-dasharray:none;stroke-opacity:1"
         id="path22" /><path
         d="m 10729.7,2968.8 c -176.1,75.3 -212,54.5 -562,117.8 -112.2,20.3 -225.66,43.7 -338.08,70.3 -513.63,121.6 -1035.28,287.8 -1198.84,730.8 -80.14,217 22.08,232.4 -361.13,604.8 -147.94,143.8 -323.13,295.8 -476.39,442.9 -927.75,890.3 -283.28,1005.6 1659.63,1936.49 109.4,52.41 231.71,110.92 338.04,159.63 527.97,241.94 712.57,514.54 3438.87,-881.92 1037.6,-531.4 1104.7,-622.5 1031.2,-899.7 -68.8,-259.1 -313.9,-620.7 -444.1,-876.2 -144.6,-283.6 -31.2,-250.6 -509,-920.8 -126.5,-177.5 -270.8,-372.1 -423.3,-585.3 -212.4,-297.1 -274.2,-414.8 -422.9,-529 -567.5,-436 -1144.7,379 -1732,630.2 z"
         style="fill:none;stroke:#231f20;stroke-width:26.0899;stroke-linecap:butt;stroke-linejoin:miter;stroke-miterlimit:10;stroke-dasharray:none;stroke-opacity:1"
         id="path24" /><path
         d="m 10708.4,3075.6 c -170,69.2 -206.6,55.2 -538.7,109.9 -106.7,17.6 -214.99,37.6 -322.65,60.2 -567.43,119.6 -1062.56,267 -1221.03,747.7 -29.47,89.3 -6.16,159.5 -296.15,434.1 -183.39,173.6 -424.99,365 -637.7,548.1 -1230.24,1059 -302.39,1051.6 1868.39,2051.56 372.01,171.36 629.64,294.12 817.04,317.13 634.3,77.88 3424.2,-1311.29 3884.5,-1659.89 282.4,-213.8 185.2,-438.4 -325.3,-1132.3 -424.7,-577.1 -79.2,-222.3 -723.3,-1046.4 -135.4,-173.3 -283.3,-361.7 -432,-565.7 -164,-225 -417.7,-682.9 -977.4,-487.3 -153,53.4 -305.4,146 -442.5,235 -102.1,66.3 -204.5,136.7 -307.5,201.9 -108.6,68.9 -226,137.3 -345.7,186 z"
         style="fill:none;stroke:#231f20;stroke-width:26.0899;stroke-linecap:butt;stroke-linejoin:miter;stroke-miterlimit:10;stroke-dasharray:none;stroke-opacity:1"
         id="path26" /><path
         d="m 10683.9,3184.9 c -176.5,67.1 -234.4,59 -517.5,101.2 -733.28,109.5 -1244.27,235.8 -1460.99,619.2 -160.62,284.2 82.51,185.4 -976.4,1010.1 -1757.15,1368.2 -536.4,1117 2093.9,2316.93 549.09,250.48 585.39,377.38 1947.59,-189.61 559.9,-233.01 1319,-588.8 1880.9,-879.82 1142.7,-591.7 1204.1,-602.6 134.5,-1782.1 -240.2,-264.9 -47.4,-81.4 -460.4,-566.2 -167.2,-196.2 -356.8,-414.6 -542.6,-657.7 -269.8,-353.3 -530.1,-795.7 -1290.1,-407.7 -155.4,79.3 -310.4,178 -466.5,267.2 -109.4,62.6 -225.2,124 -342.4,168.5 z"
         style="fill:none;stroke:#231f20;stroke-width:26.0899;stroke-linecap:butt;stroke-linejoin:miter;stroke-miterlimit:10;stroke-dasharray:none;stroke-opacity:1"
         id="path28" /><path
         d="m 10656.8,3296.2 c -172.8,60.1 -237.2,56.9 -498,92 -246.9,33.2 -547.66,79.6 -784.07,144.4 -678.74,186.4 -621.21,490.7 -814.77,699.9 -462.91,500.4 -1818.35,1235.3 -1893.46,1676.3 -77.72,456.22 1118.23,571.99 2522.47,1118.16 351.59,136.77 802.38,437.92 1142.93,512.95 645.7,142.24 3969.5,-1548.81 4232.4,-1807.41 110.1,-108.3 178.5,-212.2 19.4,-468.6 -238.8,-384.7 -818.5,-851.2 -984.2,-1003.5 -19.3,-17.9 -500.9,-525.7 -657.6,-705.2 -279.4,-319.9 -283.5,-373 -419.3,-508.8 -505.5,-505.6 -1033.1,-150.9 -1531.5,102 -107.5,54.6 -220.3,108.1 -334.3,147.8 z"
         style="fill:none;stroke:#231f20;stroke-width:26.0899;stroke-linecap:butt;stroke-linejoin:miter;stroke-miterlimit:10;stroke-dasharray:none;stroke-opacity:1"
         id="path30" /><path
         d="m 10634.6,3406.9 c -504.6,160 -1504.89,52.1 -1863.58,575.7 -84.85,123.8 -54.98,137.8 -202.99,279.4 -464.18,444 -1677.45,1135.3 -2029.62,1566.1 -483.33,591.15 637.54,642.34 2091.75,1070.63 64.28,18.94 132.99,36.36 184.14,60.56 302.49,143.1 597.02,298.29 862.97,427.67 642.93,312.75 750.43,296.19 999.83,245.05 972.1,-199.39 3640.1,-1572.61 3923.7,-1792.01 194.1,-150.2 290.2,-263.1 70.2,-564.8 -222.4,-305.2 -644.4,-636.1 -954.5,-853.2 -132.4,-92.7 -255.3,-159.6 -663.3,-565.3 -74.1,-73.7 -146.8,-149.7 -216.8,-227.8 -349.4,-389.7 -580.9,-910.8 -1561.9,-490.8 -104.6,44.8 -209.4,94.1 -314,140.7 -105.5,46.9 -215.5,93 -325.9,128.1 z"
         style="fill:none;stroke:#231f20;stroke-width:26.0899;stroke-linecap:butt;stroke-linejoin:miter;stroke-miterlimit:10;stroke-dasharray:none;stroke-opacity:1"
         id="path32" /><path
         d="m 10604.5,3521 c -556.3,155.7 -1555.32,25.7 -1842.03,574.2 -174.59,333.9 -1770.72,1222.2 -2325.2,1728.4 -611.92,558.66 -30.04,672.88 1035.78,878.79 843.78,163.05 659.4,81.48 1839.11,643.5 1028.24,489.9 1100.44,473.91 1512.24,365.69 1038.9,-272.92 3811.5,-1687.48 4033,-1960.58 300.8,-371.2 -858.1,-1115.5 -1283.4,-1353.8 -314.9,-176.4 -586.5,-418.6 -791.9,-638.1 -263,-281 -544.6,-780.3 -1396.3,-517.2 -103.1,31.9 -206.2,70.8 -306.8,109.8 -51.6,20 -103.4,40.3 -155.2,60.2 -104.1,39.8 -211.6,79 -319.3,109.1 z"
         style="fill:none;stroke:#231f20;stroke-width:26.0899;stroke-linecap:butt;stroke-linejoin:miter;stroke-miterlimit:10;stroke-dasharray:none;stroke-opacity:1"
         id="path34" /><path
         d="m 10579.6,3634.4 c -565,138.2 -1349.62,23.9 -1699.09,398.3 -96.2,103.1 -43.36,84.3 -179.57,204.9 -391.18,346.6 -1434.72,951.1 -2072.96,1396.5 -1139.96,795.57 -749.5,922.16 574.74,1112.22 661.05,94.88 487.79,21.25 2123.13,751.33 993.95,443.72 1099.65,418.07 1362.45,364.42 1029.1,-210.05 3632.3,-1597.97 4156.9,-1964.57 58.5,-40.9 122.8,-92.2 152.3,-157.1 102.4,-225.1 -290.4,-557.9 -486.5,-711 -867.9,-677.3 -1229.8,-514.5 -1875.1,-1248.2 -374.6,-425.9 -777.5,-506.6 -1292.5,-376.8 -101.8,25.6 -203.3,57.4 -303.2,89.8 -50.9,16.6 -101.9,33.5 -152.9,50 -101.4,32.9 -204.5,64.9 -307.7,90.2 z"
         style="fill:none;stroke:#231f20;stroke-width:26.0899;stroke-linecap:butt;stroke-linejoin:miter;stroke-miterlimit:10;stroke-dasharray:none;stroke-opacity:1"
         id="path36" /><path
         d="m 10554.3,3748.2 c -493.6,103.4 -1169.74,45 -1499.54,235.8 -185.95,107.6 -97.12,117.4 -371.89,325.5 -487.75,369.4 -1537.43,963.4 -2208.56,1414.2 -1263.22,848.3 -808.21,951.24 580.82,1084.21 780.37,74.7 2876.86,1227.61 3422.47,1203.84 151.2,-6.6 335.6,-53.36 480,-96.47 1153.4,-344.13 3312.8,-1536.32 3713.6,-1806.38 50.6,-34.2 103.4,-66.9 154.8,-96.9 257.4,-150.1 494.8,-296.9 -10.7,-748.3 -293.1,-261.7 -692.6,-493.9 -1063.5,-658 -503.1,-222.6 -508,-168.9 -778,-354.8 -326.2,-224.6 -334.8,-334.5 -594.7,-513.4 -238.6,-164.1 -492.6,-230.3 -784.4,-214.1 -98.8,5.5 -196.7,20 -292.6,39.1 -100.5,20 -200.7,45.4 -299.7,71.8 -50.2,13.4 -100.5,27.1 -150.7,40.7 -97.9,26.3 -197.8,52.3 -297.4,73.2 z"
         style="fill:none;stroke:#231f20;stroke-width:26.0899;stroke-linecap:butt;stroke-linejoin:miter;stroke-miterlimit:10;stroke-dasharray:none;stroke-opacity:1"
         id="path38" /><path
         d="m 9764.74,3932.1 c -745.79,45.2 -680.31,136.6 -928.71,325.3 -248.35,188.6 -751.68,490.5 -1023.25,653 -2183.12,1306.1 -3033.89,1782.97 -1538.04,1914.16 1058.41,92.84 705.45,89.06 3128.37,1004.89 247.68,93.6 568.27,207.36 825.19,270.55 159.1,39.16 347.9,121.46 1314.8,-268.3 982.7,-396.14 2530.7,-1220.33 3136.8,-1628.8 321.6,-216.6 601.1,-295.7 502.5,-547.8 -96.2,-246.2 -518,-530.6 -747.5,-666 -974.5,-575 -1286.7,-377.4 -1792.9,-861.3 -375.2,-358.6 -760.6,-475.7 -1233.6,-430.5 -98.1,9.3 -195.9,24.9 -293.8,43.6 -99.5,19 -198.4,41.1 -297.1,62.6 -356.2,77.8 -437.1,91.4 -1052.76,128.6 z"
         style="fill:none;stroke:#231f20;stroke-width:26.0899;stroke-linecap:butt;stroke-linejoin:miter;stroke-miterlimit:10;stroke-dasharray:none;stroke-opacity:1"
         id="path40" /><path
         d="m 9621.12,4039.1 c -120.79,6 -445.34,20.2 -572.73,136.2 -517.34,470.7 -3838.71,2057.1 -3726.71,2517.79 42.09,173.16 525.07,196.77 731.45,207.77 1173.51,62.58 2826.08,1027.41 4186.37,1329 36.7,8.14 124.7,26.89 163,29.77 847.9,63.67 3766.2,-1595.36 4183.1,-1890.81 58,-41.12 118.7,-81.62 178.9,-120.52 329.9,-213.8 444.8,-257.5 498.6,-368.6 104,-215.1 -237.2,-488.9 -431.8,-627 -797.6,-565.7 -1701.4,-688.3 -1968.3,-830 -167.2,-88.8 -203.8,-147.2 -358.2,-257.5 -358.4,-256.1 -713.7,-340.2 -1135.6,-315 -97.1,5.8 -193.9,17 -290.9,31 -602.1,86.9 -390.9,104.6 -1457.18,157.9 z"
         style="fill:none;stroke:#231f20;stroke-width:26.0899;stroke-linecap:butt;stroke-linejoin:miter;stroke-miterlimit:10;stroke-dasharray:none;stroke-opacity:1"
         id="path42" /><path
         d="m 9713.89,4135.3 c -148.76,3.8 -272.52,6.8 -379.61,24.2 -212.24,34.6 47.54,-55 -1956.19,1062.8 -948.32,529.1 -1800.24,1018.6 -2113.65,1330.39 -475.73,473.35 461.71,394.45 733.01,443.48 1287.79,232.77 2780.9,1074.14 4253.05,1364.65 132.7,26.19 190.7,36.44 330.7,19.64 1324.5,-158.93 4599,-2251.86 4724.6,-2409.86 185.2,-232.9 -205.3,-536.8 -452.6,-699.1 -736,-482.7 -1560.6,-615.6 -1928.7,-738.5 -196.3,-65.6 -225.7,-104 -364.7,-193.9 -137.6,-89 -275,-163.4 -427.8,-221.2 -126.9,-48 -253.8,-80.3 -383,-99.8 -83.6,-12.7 -174.5,-20.9 -275.2,-23.2 -94.8,-2.2 -189.5,1.1 -284.9,8 -423.4,30.5 -695.3,112.5 -1475.01,132.4 z"
         style="fill:none;stroke:#231f20;stroke-width:26.0899;stroke-linecap:butt;stroke-linejoin:miter;stroke-miterlimit:10;stroke-dasharray:none;stroke-opacity:1"
         id="path44" /><path
         d="m 9595.62,4237.8 c -259.45,4.2 -349.85,25.2 -464.24,82 -56.86,28.3 -2969.8,1558.9 -3722.62,2087.48 -970.27,681.25 -104.12,611.16 145.85,648.96 1408.68,213.07 2988.05,1165.62 4777.99,1447.85 1032.7,162.88 4817.4,-2192.99 5042.8,-2497.39 180.1,-243.1 -243.8,-553.5 -500.5,-710.7 -688.5,-421.6 -1467.6,-560.5 -1849.7,-661.1 -403.1,-106.1 -423.7,-193.9 -815.7,-344.7 -159.8,-61.4 -322.3,-105.1 -498.1,-130.8 -608.3,-88.7 -997.4,60.6 -2115.78,78.4 z"
         style="fill:none;stroke:#231f20;stroke-width:26.0899;stroke-linecap:butt;stroke-linejoin:miter;stroke-miterlimit:10;stroke-dasharray:none;stroke-opacity:1"
         id="path46" /><path
         d="m 9887.85,4335.7 c -271.74,7.7 -521.51,-12.3 -659.79,38.7 -204.46,75.3 -3869.89,1881.1 -4350.94,2450.9 -178.62,211.57 -2.08,280.64 272.96,300.41 1191.06,85.63 3352.84,1328.48 5253.92,1516.07 985.9,97.3 4304.9,-1953.34 4921.6,-2489.08 97.9,-85.2 297.4,-229.7 -30.6,-541.6 -651.5,-619.6 -2059.7,-856 -2326.2,-924.9 -257,-66.5 -246,-86.7 -434,-160.3 -72.4,-28.4 -335.7,-117.8 -442.1,-148.4 -778.1,-224.1 -1420.9,-64.2 -2204.85,-41.8 z"
         style="fill:none;stroke:#231f20;stroke-width:26.0899;stroke-linecap:butt;stroke-linejoin:miter;stroke-miterlimit:10;stroke-dasharray:none;stroke-opacity:1"
         id="path48" /><path
         d="m 9640.06,4438.6 c -215.08,-2.2 -218.61,-26 -370.91,22 -394.54,124.4 -4965.87,2283.13 -4570.31,2665.07 75.4,72.83 167.45,45.28 556.88,141.21 1670.38,411.41 2809.58,1244.06 5146.38,1502.19 977.2,107.96 4390.6,-1998.27 4976.6,-2572.07 76.7,-75.2 129.8,-128.5 141.8,-206.2 38.2,-247.6 -394.5,-520.6 -613.5,-639.5 -853,-463.4 -1799.5,-523.3 -2161.6,-672.4 -219.2,-90.2 -452.2,-154.7 -687.7,-200.2 -1089.6,-210.7 -1540.6,-31.3 -2417.64,-40.1 z"
         style="fill:none;stroke:#231f20;stroke-width:26.0899;stroke-linecap:butt;stroke-linejoin:miter;stroke-miterlimit:10;stroke-dasharray:none;stroke-opacity:1"
         id="path50" /><path
         d="m 9670.15,4534.5 c -107.04,-8.6 -172.83,-19.3 -285.14,2.3 -577.67,110.8 -4494.85,1994.57 -4803.53,2531.56 -45.29,78.82 -27.82,136.75 61.53,171.97 0,0 602.52,134.41 1729.31,573.37 1557.05,606.62 2184.46,889.71 3876.38,1064.73 168.1,17.38 196.5,27.23 309.2,18.57 1132.6,-87.04 4373.9,-2059.4 4907,-2702 70,-84.5 167.1,-193.2 19.9,-391.2 -125.1,-168.3 -369.1,-319.5 -555.8,-416.8 -815.3,-424.6 -1678.3,-479.4 -2158.7,-644.8 -156,-53.8 -317.2,-96.5 -477.4,-130.7 -1236.5,-263.8 -2143.9,-38.4 -2622.75,-77 z"
         style="fill:none;stroke:#231f20;stroke-width:26.0899;stroke-linecap:butt;stroke-linejoin:miter;stroke-miterlimit:10;stroke-dasharray:none;stroke-opacity:1"
         id="path52" /><path
         d="m 9725.66,4634.6 c -75.67,-4 -137.48,-8.9 -211.76,-3.6 -709.14,50.4 -4294.12,1810.89 -4908.28,2380.37 -275.41,255.42 -74.63,292.96 38.46,336.73 236.33,91.54 583.5,205.84 1200.49,452.41 2072.26,828.12 2307.74,1019.55 4476.23,1210.99 83.8,7.41 147.1,25.84 317.6,2.99 1181.7,-158.44 4832.8,-2347.24 4949.5,-2941.09 33.5,-170.9 -158.1,-343.3 -299.1,-446 -510.7,-371.9 -1281,-556.1 -1816.5,-664.9 -781.2,-158.8 -711.4,-203.3 -1299.3,-293.4 -1249.3,-191.2 -2038.6,-12.3 -2447.34,-34.5 z"
         style="fill:none;stroke:#231f20;stroke-width:26.0899;stroke-linecap:butt;stroke-linejoin:miter;stroke-miterlimit:10;stroke-dasharray:none;stroke-opacity:1"
         id="path54" /><path
         d="m 9714.34,4744.9 c -226.54,-7.2 -495.31,-18 -1932.3,604.6 -499.28,216.3 -3109.06,1390.98 -3362.04,1871.46 -53.01,100.66 -28.16,142.03 439.42,347.59 3292.31,1447.35 3330.3,1418.16 5451.58,1565.59 97.3,6.77 83.2,11.24 146.9,13.84 467.7,19.12 1315.4,-377.84 1732.2,-585.4 886,-441.32 1412.2,-794.66 2308,-1373.23 347,-224.11 782,-537.55 1012.6,-882.65 127.3,-190.6 157.3,-312.2 -43.1,-512.5 -444.5,-444 -1425.5,-669.7 -2010.1,-786.9 -603.4,-120.9 -424.2,-109.9 -805.8,-183.9 -1357,-263.2 -2461.6,-63.6 -2937.36,-78.5 z"
         style="fill:none;stroke:#231f20;stroke-width:26.0899;stroke-linecap:butt;stroke-linejoin:miter;stroke-miterlimit:10;stroke-dasharray:none;stroke-opacity:1"
         id="path56" /><path
         d="m 9784.32,4869.2 c -260,-4.8 -580.01,-29.7 -2089.52,598.2 -1221.75,508.3 -2910.84,1331.71 -3266.23,1742.53 -171.33,198.07 -72.37,276.07 1124.3,838.95 2483.45,1167.98 2671.83,1101.8 4897.43,1218.79 491.3,25.82 1395.3,-407.07 1833.1,-630.69 408.3,-208.51 2510.2,-1393.65 3059.7,-2026.66 83.2,-95.97 166.9,-208.62 223.4,-321.92 75.9,-152.2 125.6,-295.7 -163.3,-531.2 -226.7,-184.9 -558.1,-329.2 -833.5,-424.7 -415.3,-143.9 -1669.6,-422.6 -2152.9,-476.2 -1308.9,-145.2 -2272.8,19.6 -2632.48,12.9 z"
         style="fill:none;stroke:#231f20;stroke-width:26.0899;stroke-linecap:butt;stroke-linejoin:miter;stroke-miterlimit:10;stroke-dasharray:none;stroke-opacity:1"
         id="path58" /><path
         d="m 9945.76,5000.7 c -338.59,11.4 -619.73,-90.2 -2257.87,556.2 C 6435.47,6051.1 4773.04,6849.94 4416,7257.37 c -73.93,84.4 -93.17,148.46 -29.51,244.51 60.4,91.14 185.16,180.56 276.39,240.79 178.94,118.12 2242.18,1352.96 3827.87,1563.71 171.23,22.75 340.53,38.24 508.61,48.39 531.53,32.14 1005.54,7.87 1278.64,15.95 143.6,4.25 553.9,167.45 2234.7,-735.33 725.7,-389.78 817.3,-496.4 1641.5,-990.93 466.5,-279.99 1024.7,-651.44 1329.6,-1137.46 214.4,-341.9 153,-470.2 60.2,-585.8 -422.9,-527.1 -1799.2,-766.5 -2167.1,-844.8 -1534.3,-326.9 -3231.1,-82.5 -3431.14,-75.7 z"
         style="fill:none;stroke:#231f20;stroke-width:26.0899;stroke-linecap:butt;stroke-linejoin:miter;stroke-miterlimit:10;stroke-dasharray:none;stroke-opacity:1"
         id="path60" /><path
         d="m 9901.18,5048 c -229.36,25.4 -452.69,25.1 -1093.3,230.8 -1084.9,348.5 -3655.32,1449.74 -3662.44,1872.58 -0.49,29.64 -37.05,113.91 88.66,280.41 291.35,385.9 1849.52,1440.52 3196,1737.84 748.3,165.25 1425.26,147.7 1810.6,171.99 175.9,11.08 586.5,229.63 2493.6,-767.86 798.8,-417.7 198.4,-142.37 1509.2,-819.58 577,-298.02 1307.4,-764.43 1548.3,-1368.54 19.2,-48.18 35.4,-99.54 44.1,-150.24 73.9,-428.1 -797.1,-787.3 -1210.7,-919.6 -391.1,-125 -769.5,-193.4 -1086.2,-249.4 -501.1,-88.6 -588.5,-139.1 -1121.1,-174.1 C 11111,4806.4 9950.98,5042.5 9901.18,5048 Z"
         style="fill:none;stroke:#231f20;stroke-width:26.0899;stroke-linecap:butt;stroke-linejoin:miter;stroke-miterlimit:10;stroke-dasharray:none;stroke-opacity:1"
         id="path62" /><path
         d="M 9893.31,5108.1 C 8503.5,5406.9 6656.8,6266.9 6093.62,6686.09 c -267.79,199.35 -222.41,265.83 -222.04,297.37 0.46,38.21 -119.33,197.71 236.16,590.79 470.53,520.42 1640.66,1382.54 3073.35,1617.02 490.14,80.22 671.59,62.38 1272.01,150.06 847.9,123.84 2699.5,-972.19 3673.1,-1380 635.5,-266.17 1288.5,-599.03 1690.1,-1162.2 153.5,-215.25 218.6,-397.35 235.3,-516.83 11.5,-81.9 23.2,-216.6 -205,-429.2 -568.7,-529.6 -1607.1,-729.9 -2345.2,-838.6 -562.9,-82.9 -585.8,-127.9 -1068.1,-157.1 -1335,-81 -2363.6,212.8 -2539.99,250.7 z"
         style="fill:none;stroke:#231f20;stroke-width:26.0899;stroke-linecap:butt;stroke-linejoin:miter;stroke-miterlimit:10;stroke-dasharray:none;stroke-opacity:1"
         id="path64" /><path
         d="M 9885.56,5183.5 C 7788.04,5868 6572.63,6548.54 6521.05,6817.13 c -4.2,21.92 8.62,49.14 9.17,60.19 0.8,16.18 -21.3,55.25 -26.9,83.94 -116.04,594.49 1294.92,1796.56 2745.96,2132.36 398.81,92.28 749.8,126.26 980.72,164.23 221,36.36 584.1,352.74 3039.6,-835.25 737.6,-356.89 2124.1,-546.31 2787.3,-1571.11 97.4,-150.67 192,-347.31 210.3,-524.19 10.8,-104.7 -5,-184.1 -74,-289.6 -118.8,-181.6 -343.9,-345.3 -529.5,-455.9 -679.3,-405 -1468.9,-532.2 -2123.2,-609.4 -733.3,-86.7 -740.4,-147 -1335.9,-153 -1445.9,-14.5 -2290.65,354.8 -2319.04,364.1 z"
         style="fill:none;stroke:#231f20;stroke-width:26.0899;stroke-linecap:butt;stroke-linejoin:miter;stroke-miterlimit:10;stroke-dasharray:none;stroke-opacity:1"
         id="path66" /><path
         d="m 10088.2,5175.6 c -370.26,191.8 -2669.25,1036 -2955.44,1517.67 -49.94,84.03 -9.93,103.15 -7.67,131.33 2.43,29.95 -225.46,301.42 300.69,934.89 1035.33,1246.43 2525.46,1352.7 2925.62,1473.44 45.3,13.64 76.4,32.67 170.4,47.74 782.9,125.71 2493.6,-723.86 2941.1,-869.47 623.4,-202.84 1782.3,-357.37 2510.7,-1090.89 213.6,-215.04 400.1,-495.71 476.6,-784 67,-252.31 34.7,-405.21 -169,-622.71 -284.8,-304.1 -908.1,-694.3 -1884,-879.4 -416.8,-79.1 -797.3,-104.3 -1106.9,-132 -469.4,-42.1 -484.6,-103.9 -1026.2,-106 -791.6,-3.1 -1786.1,177.4 -2175.9,379.4 z"
         style="fill:none;stroke:#231f20;stroke-width:26.0899;stroke-linecap:butt;stroke-linejoin:miter;stroke-miterlimit:10;stroke-dasharray:none;stroke-opacity:1"
         id="path68" /><path
         d="m 10163.5,5208.3 c 0,0 -132.6,86.1 -211.78,132.8 -476.77,281.6 -1678.62,761.8 -2155.34,1175.17 -240.43,208.46 -139.36,272.49 -136.51,300.66 1.54,15.3 -28.13,61.75 -37.15,94.2 -138.69,499.1 584.2,1638.23 2300.4,2135.58 91.38,26.49 174.98,49.29 249.18,70.66 538.4,155.05 525.8,378.04 2995.2,-538.54 796.5,-295.62 2345.2,-271.8 3152.1,-1301.98 180.5,-230.32 294.7,-482.44 342.4,-699.68 55.3,-252.07 18.7,-386.07 -102.9,-551.77 -167.9,-228.7 -452.7,-433.6 -699.2,-573.9 -1148,-653.2 -2350.9,-526.2 -3031.6,-639.3 -248.1,-41.2 -535.8,-41.5 -788.9,-26.9 -550.5,31.7 -1394.6,172.2 -1875.9,423 z"
         style="fill:none;stroke:#231f20;stroke-width:26.0899;stroke-linecap:butt;stroke-linejoin:miter;stroke-miterlimit:10;stroke-dasharray:none;stroke-opacity:1"
         id="path70" /><path
         d="m 10111.6,5337.6 c -580.06,465.2 -1658.41,899.5 -1947.73,1290.74 -108.86,147.17 -28.84,189.42 -25.64,217.6 1.75,15.4 -28.96,63.64 -38.43,97.33 -131.52,467.78 397.85,1466.29 1964.8,2048.81 423.5,157.5 381.5,185.42 600.2,211.64 767.9,91.99 2216.4,-526.6 2680.7,-631.81 845.1,-191.43 2957.2,-130.69 3467.1,-1755.76 139.8,-445.46 74.5,-650.55 -196.1,-935.65 -186.1,-196 -430.3,-369.7 -668.3,-503.1 -1000.2,-560.7 -2049.1,-537.2 -2709.8,-555.1 -518.9,-14.1 -471.6,-79.9 -996.6,-58.6 -721.2,29.3 -1734.6,256.4 -2130.2,573.9 z"
         style="fill:none;stroke:#231f20;stroke-width:26.0899;stroke-linecap:butt;stroke-linejoin:miter;stroke-miterlimit:10;stroke-dasharray:none;stroke-opacity:1"
         id="path72" /><path
         d="m 10133.6,5435.1 c -552.87,537.2 -1341.31,879.9 -1562.85,1243.3 -93.59,153.46 -10.34,195.19 -6.85,224.85 1.85,15.88 -28.26,64.89 -37.41,99.45 -124.79,471.49 354.77,1281.07 1415.32,1816.28 133.19,67.23 250.49,120.04 343.79,167.57 147.5,75.11 318.2,257.86 1081.5,138.36 841,-131.66 1574.4,-466.2 2182.4,-530.33 1124.9,-118.65 2848.2,-85.6 3390.4,-1531.37 79.4,-211.62 130.3,-439.39 124.6,-666.37 -7.9,-312.94 -401,-666.24 -651.9,-852.24 -1143.9,-848.3 -2433.2,-754.2 -3264.6,-756.5 -425,-1.1 -443.4,-71.9 -984.9,-27.1 -645.9,53.4 -1639.1,294.8 -2029.5,674.1 z"
         style="fill:none;stroke:#231f20;stroke-width:26.0899;stroke-linecap:butt;stroke-linejoin:miter;stroke-miterlimit:10;stroke-dasharray:none;stroke-opacity:1"
         id="path74" /><path
         d="m 10479.5,5289.7 c -344.8,212.8 -282.6,266.6 -657.48,604.7 -193.45,174.5 -411.67,340.8 -591.97,504.08 -483.52,437.94 -294.51,539.46 -289.54,582.03 3.28,28.18 -124.52,193.81 15.45,574.17 237.99,647.15 840.43,1019.95 1319.84,1319.54 148.3,92.72 192.2,149.35 386.4,196.28 752.1,181.8 2103.6,-349.64 2680.4,-408.67 99.7,-10.2 215.3,-16.22 315.7,-20.48 1476.5,-62.87 3305.1,-19.56 3561.2,-1971.4 35.7,-272.04 50,-458.95 -312.9,-843.55 -226.9,-240.4 -514.9,-451.7 -802.6,-610.2 -1141.1,-628.6 -2293.2,-467.4 -3040.9,-454.2 -337.2,5.9 -312.4,-42.6 -705.7,-18.9 -577.3,34.9 -1355.5,224.1 -1877.9,546.6 z"
         style="fill:none;stroke:#231f20;stroke-width:26.0899;stroke-linecap:butt;stroke-linejoin:miter;stroke-miterlimit:10;stroke-dasharray:none;stroke-opacity:1"
         id="path76" /><path
         d="m 10908.3,5141.1 c -589.6,287.5 -724.4,550.5 -824.3,677.9 -354.9,453.2 -822.75,800.89 -851.62,1093.57 -10.1,102.07 36.26,128.61 39.41,156.77 3.13,28.18 -163.2,301.68 168.05,838.53 236.98,384.04 566.76,631.72 818.76,825.34 161.7,124.31 203.1,183.14 384.1,243.93 724.6,243.32 2038.3,-233.44 2632.4,-278.79 97,-7.39 212.8,-9.04 310.1,-9.35 1878.2,-5.83 3410.2,91.31 3750,-1786.22 89.9,-496.16 50.7,-588.98 -15,-717.38 -65.2,-127.5 -167.1,-256.9 -263.8,-363.4 -1405.7,-1547 -3391.5,-1074.9 -4179.1,-1076.6 -78.8,-0.2 -140,-19 -336.7,-14 -470.1,12.1 -1112,156 -1632.3,409.7 z"
         style="fill:none;stroke:#231f20;stroke-width:26.0899;stroke-linecap:butt;stroke-linejoin:miter;stroke-miterlimit:10;stroke-dasharray:none;stroke-opacity:1"
         id="path78" /><path
         d="m 10708.2,5351.9 c -435,304.3 -426.1,438.1 -821.34,974.1 -76.48,103.67 -149.58,202.12 -210.04,296.01 -253.7,393.71 -120.04,495.4 -115.42,539.39 2.11,20.15 -18.34,67.21 -22.79,103.45 -52.43,425.07 298.59,892.17 601.29,1195.36 289.8,290.4 447.4,530.65 1202.8,516.35 712.2,-13.47 1476.8,-255.65 1980.8,-258.32 1977.8,-10.4 3809.7,533.98 4165.8,-1929.52 59.3,-410.51 118.4,-572.02 -468.1,-1149.72 -1535,-1512.2 -3284.2,-885.9 -4318.4,-911.5 -533.4,-13.1 -1396.1,205.8 -1994.6,624.4 z"
         style="fill:none;stroke:#231f20;stroke-width:26.0899;stroke-linecap:butt;stroke-linejoin:miter;stroke-miterlimit:10;stroke-dasharray:none;stroke-opacity:1"
         id="path80" /><path
         d="m 12311.6,4764.8 c -511.7,88.6 -1082,312.6 -1513.9,645.9 -439.9,339.6 -517,587.1 -725.4,958.45 -127.28,226.97 -246.24,433.06 -281.68,615.23 -33.55,172.53 19.11,228.93 22.43,263.93 3.7,39.18 -140.32,378.8 379.65,1050.77 30,38.79 196.7,248.01 241.2,292.6 627.5,629.8 2135.1,100.06 2942.9,143.8 1554.6,84.22 3484,494.68 4002.5,-944.5 87,-241.35 154.4,-495.07 202.5,-770.09 25,-143.13 44.7,-291.61 58.3,-437.56 13.9,-150.56 23.9,-201.15 -19.2,-319.93 -114.4,-315.3 -512.4,-691.8 -771.9,-906.6 -1497.7,-1239.8 -2954,-683.7 -4001,-628 -52.9,2.8 -213.9,-19.8 -536.4,36 z"
         style="fill:none;stroke:#231f20;stroke-width:26.0899;stroke-linecap:butt;stroke-linejoin:miter;stroke-miterlimit:10;stroke-dasharray:none;stroke-opacity:1"
         id="path82" /><path
         d="m 12178.7,4816.5 c -376.1,99.4 -752.9,270.1 -1073.4,495.6 -639.7,450 -779.2,876.2 -945.4,1279.85 -226.13,549.6 -137.7,625.43 -129.5,729.75 3.6,46.4 -73.93,285.8 224.9,801.64 119.9,207.04 183.5,302.76 298.6,399.13 678.6,568.3 1988.1,133.61 2880.7,227.35 1632.8,171.46 3398.1,518.03 3932,-582 374.9,-772.34 413.5,-1730.47 394,-1826.37 -61.7,-302.65 -438.1,-680.15 -666.4,-887.95 -647.3,-589.2 -1226.3,-897.7 -2065.9,-948.1 -738.6,-44.5 -1487.7,131.8 -2012.1,203.1 -302.7,41.1 -401,-7.4 -837.5,108 z"
         style="fill:none;stroke:#231f20;stroke-width:26.0899;stroke-linecap:butt;stroke-linejoin:miter;stroke-miterlimit:10;stroke-dasharray:none;stroke-opacity:1"
         id="path84" /><path
         d="m 12653.9,4744.8 c -436.4,49.9 -989.9,266.8 -1443.2,620.4 -626.4,488.5 -814.9,981.88 -945,1481.14 -91.8,351.93 -51.3,472.36 -48.5,526.87 94.5,1866.11 2100.3,1233.6 3073.7,1358.79 116.1,14.91 266.9,38.14 388.8,57.02 1447.2,224.31 3189.1,524.51 3711.2,-386.52 356.6,-622.01 446.4,-1212.36 483.4,-1909.74 1.4,-27.8 3.7,-54.59 4,-77.59 C 17883.7,6086.1 17365.6,5589 17120.5,5370 15802.2,4192.1 14949.9,4344.1 13209,4672.7 c -448.3,84.6 -369.7,51 -555.1,72.1 z"
         style="fill:none;stroke:#231f20;stroke-width:26.0899;stroke-linecap:butt;stroke-linejoin:miter;stroke-miterlimit:10;stroke-dasharray:none;stroke-opacity:1"
         id="path86" /><path
         d="m 13092.2,4696.4 c -368.6,76.7 -429.1,37.9 -766.9,150.5 -1392.7,464.3 -2152.2,1909.8 -1910.3,2854.21 312,1218.77 2052.7,867.07 2887.4,1019.05 1231.4,224.24 3154.4,657.15 3889.6,121.52 232.9,-169.66 471.6,-620.34 587.9,-963.97 146.2,-432.42 181.4,-848.69 196.3,-1302.13 5.5,-168.23 45.8,-301.98 -212.3,-642.08 -316,-416.2 -1138.9,-1147.4 -1688.1,-1373.6 -931.5,-383.6 -2002.6,-67.7 -2983.6,136.5 z"
         style="fill:none;stroke:#231f20;stroke-width:26.0899;stroke-linecap:butt;stroke-linejoin:miter;stroke-miterlimit:10;stroke-dasharray:none;stroke-opacity:1"
         id="path88" /><path
         d="m 12849.5,4758.8 c -40.3,8 -182,8.2 -450.8,110.5 -1319.8,502.1 -2045.3,2073 -1794.4,2792.48 372.8,1069.5 1997.2,842.27 2595.5,1008.05 88.1,24.43 2516.4,643.85 3560.1,469.95 185.2,-30.86 375.5,-89.04 523.5,-204.56 133.3,-104.05 330.1,-376.68 441.7,-580.62 252.7,-461.64 333,-949.14 349.8,-1470.26 4.7,-147.59 4.2,-284.8 5.1,-396.26 0.8,-97.85 33.9,-261.88 -289.7,-645.98 -354.8,-421 -1228,-1186.5 -1755.5,-1383 -997.1,-371.5 -2244.2,114.6 -3185.3,299.7 z"
         style="fill:none;stroke:#231f20;stroke-width:26.0899;stroke-linecap:butt;stroke-linejoin:miter;stroke-miterlimit:10;stroke-dasharray:none;stroke-opacity:1"
         id="path90" /><path
         d="m 12892.6,4773 c -52.1,13.2 -180,20.1 -411.1,120.8 -1199.5,523 -1777.2,2039.39 -1690.8,2519.36 64,355.03 332.6,620.51 659.1,786.31 572.1,290.54 1287,282.86 1696,406.35 853.7,257.75 3227.1,895.88 4048.2,519.2 218.1,-100 992.5,-711.27 992.5,-2226.31 0,-154.56 -5.1,-295.22 -7.1,-409.84 -2,-108.78 29.8,-264.87 -281.7,-632.67 -369.9,-437.1 -1346.2,-1277.3 -1829,-1461.9 -926.6,-354.3 -2209.1,133.9 -3176.1,378.7 z"
         style="fill:none;stroke:#231f20;stroke-width:26.0899;stroke-linecap:butt;stroke-linejoin:miter;stroke-miterlimit:10;stroke-dasharray:none;stroke-opacity:1"
         id="path92" /><path
         d="m 13060.2,4753.3 c -256.8,80.3 -250.5,63.5 -387.5,121.4 -976.7,412.6 -1614.6,1770.45 -1614.3,2366.08 0,51 28.4,273.89 218,498.29 501.3,593.63 1499.9,619.25 1942.3,828.38 345.3,163.21 3429.3,1123.62 4156.5,571.14 718.1,-545.52 940.1,-1215.55 926.1,-2120.09 -2.5,-161.51 -11.5,-311.81 -18.3,-441.73 -10.9,-209.76 31.8,-343.17 -278.9,-705.97 -344.1,-402 -1491.1,-1418.3 -2029.4,-1578.3 -770.3,-229 -1843.2,125.7 -2914.5,460.8 z"
         style="fill:none;stroke:#231f20;stroke-width:26.0899;stroke-linecap:butt;stroke-linejoin:miter;stroke-miterlimit:10;stroke-dasharray:none;stroke-opacity:1"
         id="path94" /><path
         d="m 12762.7,4902 c -825,412 -1569.2,1903.81 -1325.3,2476.64 309.5,726.78 1386.6,843.5 1858.9,1151.63 310.5,202.51 3278.5,1133.96 4047.6,734.05 61.4,-31.89 201.3,-130.33 284.6,-195.97 951.4,-749.8 805.5,-1749.54 751.3,-2582.17 -8.2,-126.02 24.2,-270.18 -282,-616.08 -283.1,-319.7 -1361.5,-1279.6 -1931.7,-1562.7 -202.2,-100.3 -496.7,-175 -1020.8,-108.2 -833.7,106.2 -2285.5,654.3 -2382.6,702.8 z"
         style="fill:none;stroke:#231f20;stroke-width:26.0899;stroke-linecap:butt;stroke-linejoin:miter;stroke-miterlimit:10;stroke-dasharray:none;stroke-opacity:1"
         id="path96" /><path
         d="M 12836.4,4947.6 C 12153.9,5387.9 11619,6689.22 11751,7166 c 195.7,707.03 1205.7,950.27 1562.1,1267.97 355.2,316.66 3364.1,1269.6 4091.3,886.23 1074.5,-566.58 1229.1,-1350.43 1109.3,-2538.41 -62.1,-615.69 137.9,-620.49 -1438.8,-1899.59 -820.8,-665.9 -1072.1,-727.8 -1364.9,-745.7 -882.9,-54.2 -2662.5,674.9 -2873.6,811.1 z"
         style="fill:none;stroke:#231f20;stroke-width:26.0899;stroke-linecap:butt;stroke-linejoin:miter;stroke-miterlimit:10;stroke-dasharray:none;stroke-opacity:1"
         id="path98" /><path
         d="m 12924.9,5001.2 c -462.2,403.5 -968.7,1561.56 -789.6,2101.02 195.5,588.85 926.5,879.54 1220.6,1224.16 30.9,36.12 50.4,68.41 155.3,138.28 582.9,388.02 3219.2,1210.82 3872,939.15 1376.6,-572.81 1378.6,-1510.07 1233,-2722.38 -70.1,-583.03 114.6,-518.73 -1528.4,-1841.83 -344,-277.1 -663.5,-519.4 -957.1,-650.3 -314.8,-140.5 -682.9,-98.1 -1034.9,-24 -569.9,120.1 -1873.9,576.5 -2170.9,835.9 z"
         style="fill:none;stroke:#231f20;stroke-width:26.0899;stroke-linecap:butt;stroke-linejoin:miter;stroke-miterlimit:10;stroke-dasharray:none;stroke-opacity:1"
         id="path100" /><path
         d="m 13248.7,4873 c -442.1,259.5 -1005.5,1631.07 -656.7,2311.67 214.7,419.04 633,695.84 831.6,1024.14 22.4,37.14 49.8,108.75 225.5,230.54 612.4,424.59 3075.5,1251.94 3806.6,997.75 998.2,-347.07 1369.6,-928.55 1365,-1827.53 -2.5,-472.66 -112.4,-1018.3 -115.3,-1204.79 -5.9,-374.98 -471.4,-692.58 -1314.6,-1370.78 -314.2,-252.6 -1056.9,-883.7 -1453,-951.3 -745.6,-127.4 -2327,577.9 -2689.1,790.3 z"
         style="fill:none;stroke:#231f20;stroke-width:26.0899;stroke-linecap:butt;stroke-linejoin:miter;stroke-miterlimit:10;stroke-dasharray:none;stroke-opacity:1"
         id="path102" /><path
         d="m 13220.9,5024.8 c -264.1,496.2 -478,1408.28 -311.2,1936.76 79.2,250.88 225.4,468.84 357.3,673.07 319.4,494.34 207.3,456.49 343.9,613.1 510.8,585.44 3159.7,1412.42 3795.1,1252.6 1833.1,-461.11 1602.7,-1675.63 1455.3,-2801.76 -25.2,-192.55 -35.7,-370.17 -35.7,-370.17 -68.7,-373.3 -580.2,-666.8 -1657.1,-1519 -450.8,-356.9 -838.9,-660.3 -1204.5,-751.8 -625.1,-156.3 -2612,721 -2743.1,967.2 z"
         style="fill:none;stroke:#231f20;stroke-width:26.0899;stroke-linecap:butt;stroke-linejoin:miter;stroke-miterlimit:10;stroke-dasharray:none;stroke-opacity:1"
         id="path104" /><path
         d="m 13471,4922.9 c -139.4,108.7 -111,124.6 -142.1,296.5 -292.6,1611.48 26.3,1846.19 237.5,2515.78 77.1,244.6 -72.2,693.52 1988.2,1412.4 319.4,111.42 676.1,220.23 1002.9,296.91 572.4,134.31 789.2,140.38 1297.2,-19.01 1811.5,-568.39 1116.7,-2085.93 1115.9,-3021.48 -0.3,-440.5 -612.4,-710.4 -1859.6,-1682.1 -290.4,-226.4 -859.6,-684.4 -1230.9,-699.7 -686.8,-28.3 -2096.9,657.4 -2409.1,900.7 z"
         style="fill:none;stroke:#231f20;stroke-width:26.0899;stroke-linecap:butt;stroke-linejoin:miter;stroke-miterlimit:10;stroke-dasharray:none;stroke-opacity:1"
         id="path106" /><path
         d="m 13503.3,5112.8 c -6.7,16.8 -6.4,31.5 -8.1,48.6 -11.3,111 -80.3,338.1 -150.2,656.5 -57.5,261.7 -84.8,446 -109,599.45 -10.8,68.56 -89.7,316.35 -13.5,720.9 55.5,294.35 168.3,557.72 246.1,825.26 51.9,178.72 37,178.83 76.4,255.47 349.9,681.39 3218.6,1584.15 3901.2,1468.24 40.1,-6.82 81.5,-14.4 123.7,-22.82 2245,-446.89 1525.6,-1992.77 1398.3,-3241.27 -4.5,-44.25 -8.2,-88.23 -37.4,-156.33 -123.6,-287.7 -526.1,-543.3 -1016,-891.5 -818.7,-582.1 -1496.7,-1193.4 -1960.7,-1215.7 -737.3,-35.4 -2360.8,725.2 -2450.8,953.2 z"
         style="fill:none;stroke:#231f20;stroke-width:26.0899;stroke-linecap:butt;stroke-linejoin:miter;stroke-miterlimit:10;stroke-dasharray:none;stroke-opacity:1"
         id="path108" /><path
         d="m 13831.9,5014.2 c -199.3,125.2 -182.9,177.2 -188,215.8 -13,96.8 -363.2,1141.99 -372.8,1170.18 -279.5,824.21 -93.1,1076.08 126.7,1865.52 10.8,38.8 25.9,156.8 234.9,328.62 672.6,552.86 3064.4,1280.77 3693.6,1248.5 58.1,-2.99 193.5,-25.41 242.6,-33.86 2124.7,-365.57 1785,-1604.85 1435.6,-3160.22 -23.3,-104.05 -61.6,-290.85 -61.6,-290.85 -75.9,-260.89 -405.5,-496.79 -761.6,-747.29 -1051.4,-739.5 -1680.5,-1275 -2127.8,-1305.9 -662.7,-45.6 -1881.8,496.1 -2221.6,709.5 z"
         style="fill:none;stroke:#231f20;stroke-width:26.0899;stroke-linecap:butt;stroke-linejoin:miter;stroke-miterlimit:10;stroke-dasharray:none;stroke-opacity:1"
         id="path110" /><path
         d="m 13795.9,5274 c -12.9,180.1 -586.6,1345.31 -597.9,1373.48 -283.7,703.99 -80.9,1244.81 104.5,1787.39 14.1,41.16 22.8,80.63 84.9,155.18 474.5,569.43 3057.9,1306.48 3785.2,1366.27 118.1,9.7 184.2,11.31 502.1,-39.89 2069.8,-333.23 1830,-1477.52 1332.6,-3243.5 -0.2,-0.41 -82.7,-294.95 -82.8,-295.37 -56.4,-172.66 -224.9,-326.16 -366.7,-440.46 -208.5,-168.1 -1408.4,-1002.3 -1491.5,-1057.8 -668.2,-445.9 -908.6,-449.5 -1214,-418.1 -663.6,68.1 -2040.4,589.9 -2056.4,812.8 z"
         style="fill:none;stroke:#231f20;stroke-width:26.0899;stroke-linecap:butt;stroke-linejoin:miter;stroke-miterlimit:10;stroke-dasharray:none;stroke-opacity:1"
         id="path112" /><path
         d="m 14091.4,5190.1 c -156.8,93.8 -142.7,138.5 -154.2,177.7 -54.7,186.8 -444.3,855.1 -554.5,1016.54 -539.4,790.75 -493,1465.96 -148.3,2246.88 228,516.47 2971.2,1274.91 3537.4,1385.48 426.5,83.2 566.5,54.2 654.4,43.3 2176.8,-269.66 2428.8,-992.35 1474.2,-3661.57 -96.1,-269.03 -463.7,-510.03 -995.4,-878.13 -553.4,-383.1 -1205.3,-868.7 -1645.3,-910.7 -622.7,-59.4 -1787,352.6 -2168.3,580.5 z"
         style="fill:none;stroke:#231f20;stroke-width:26.0899;stroke-linecap:butt;stroke-linejoin:miter;stroke-miterlimit:10;stroke-dasharray:none;stroke-opacity:1"
         id="path114" /><path
         d="m 14136.7,5335.8 c -62.5,54.7 -25.8,49.1 -108.9,200.2 -483.8,878.53 -1706.6,1814.27 -859.7,3242.82 156.4,263.82 941.2,531.01 2171.4,974.08 160.2,57.69 324.1,115.19 486.4,169.03 1153.2,382.67 1403.1,324.97 1803.5,243.87 1098.9,-222.63 1910.8,-358.86 1877,-1480.13 -20.6,-680.6 -415.5,-1785.5 -640.9,-2278.89 -24.5,-53.58 -67.2,-145.08 -227.1,-290.88 C 18487.6,5978.4 16995.3,4842.5 16386,4769 c -695.1,-83.8 -2044.2,387.2 -2249.3,566.8 z"
         style="fill:none;stroke:#231f20;stroke-width:26.0899;stroke-linecap:butt;stroke-linejoin:miter;stroke-miterlimit:10;stroke-dasharray:none;stroke-opacity:1"
         id="path116" /><path
         d="m 14939.8,5147.7 c -793.4,233.3 -668.9,279.8 -821.1,499.9 -471,681 -1724.9,1712.29 -1212.2,2919.98 204,480.91 269.2,470.7 2211.9,1271.62 2065.7,851.7 2136.8,594.7 3410.5,226 482.6,-139.65 1133.2,-299.17 1048.7,-1335.19 -61.4,-751.36 -533.8,-1901.93 -746,-2300.36 -92.7,-174.05 -200.7,-337.45 -1282.4,-1026.75 -762.1,-485.5 -1164.8,-680.1 -2609.4,-255.2 z"
         style="fill:none;stroke:#231f20;stroke-width:26.0899;stroke-linecap:butt;stroke-linejoin:miter;stroke-miterlimit:10;stroke-dasharray:none;stroke-opacity:1"
         id="path118" /><path
         d="m 15971,5089.2 c -491.3,51 -1088.5,203.7 -1360.8,302.2 -278.9,100.8 -209.1,112.1 -426.3,372.6 -399.8,479 -1816.4,1650.87 -1407.8,2820.43 50.6,144.51 128.4,265.64 230.1,371.44 93.8,97.77 1.8,92.82 1860.1,970.85 1998.4,944.28 2236.2,788.18 3156.1,449.18 1120.4,-412.84 1085.8,-376.67 1249.5,-487 178.3,-120.18 292.7,-282.94 348.3,-494.56 241.3,-919.23 -724.7,-2887.99 -985.3,-3150.24 -213.2,-214.4 -744.1,-556.8 -985.9,-707 -691.8,-429.7 -1023.4,-516 -1678,-447.9 z"
         style="fill:none;stroke:#231f20;stroke-width:26.0899;stroke-linecap:butt;stroke-linejoin:miter;stroke-miterlimit:10;stroke-dasharray:none;stroke-opacity:1"
         id="path120" /><path
         d="m 14877.1,5437.9 c -443.3,115.8 -354.4,137.8 -657.5,446.7 -213.6,217.8 -1927.8,1624.98 -1539.1,2782.66 95.4,284.28 156.6,416.44 2151.5,1468.94 1959.1,1033.7 2202.8,841.3 3221.3,396.8 1279.8,-558.37 1327.5,-525.9 1496.5,-735.28 629.9,-780.82 -644.9,-3210.44 -958,-3522.02 -236.6,-235.4 -1085.6,-807.7 -1585.7,-964.9 -601.8,-189.1 -1539.4,-27 -2129,127.1 z"
         style="fill:none;stroke:#231f20;stroke-width:26.0899;stroke-linecap:butt;stroke-linejoin:miter;stroke-miterlimit:10;stroke-dasharray:none;stroke-opacity:1"
         id="path122" /><path
         d="m 15282.7,5476.3 c -684.4,114.6 -692.8,188 -804.6,297.6 -226.7,222.3 -2339.3,1838.19 -1868.4,3020.81 103.2,259.15 304.4,336.11 402.9,409.42 33.5,24.97 290.9,277.5 1621.2,1072.57 2043.3,1221.1 2262,1010.6 3431.4,424.3 1459.1,-731.56 1393.9,-646.3 1534.6,-794.09 135.2,-141.97 187.4,-327.99 196.7,-524.7 36.3,-765.05 -592.7,-2072.88 -948.7,-2659.48 -215.4,-355.17 -323.6,-470.03 -709,-728.53 -873.2,-585.6 -1393.6,-762.8 -2856.1,-517.9 z"
         style="fill:none;stroke:#231f20;stroke-width:26.0899;stroke-linecap:butt;stroke-linejoin:miter;stroke-miterlimit:10;stroke-dasharray:none;stroke-opacity:1"
         id="path124" /><path
         d="m 15593,5557.9 c -927.8,94.7 -915.8,185.5 -1135.1,366.3 -119.6,98.6 -2053.4,1516.76 -1975,2728.56 8,122.66 41,239.33 110.5,338.86 128.7,184.32 240.7,153.94 486.4,415.08 267.1,283.54 2293,1751.6 3205.9,2008.4 437,122.9 665.8,75.1 1478.5,-372.7 1992.7,-1097.93 1840.2,-989.5 1934.5,-1097.28 523.8,-598.18 -389.6,-2380.11 -805.4,-3058.94 C 18603.8,6413.76 18438,6215.9 17802,5865.7 17340.3,5611.5 16856.4,5429 15593,5557.9 Z"
         style="fill:none;stroke:#231f20;stroke-width:26.0899;stroke-linecap:butt;stroke-linejoin:miter;stroke-miterlimit:10;stroke-dasharray:none;stroke-opacity:1"
         id="path126" /><path
         d="m 14735.1,5835.1 c -797.5,421.1 -3127,2654.15 -2058.9,3366.01 95.7,63.79 191.1,148.78 271.7,231.48 167.1,171.43 160.6,252.18 1089.3,971.71 653.5,506.4 1741.8,1322.6 2422.3,1379.1 271.5,22.6 550.8,-97.4 1137.4,-451.6 2282.5,-1378.58 2177.2,-1267.7 2265.6,-1483.05 288.3,-702.07 -653.4,-2414.53 -1080.1,-3039.87 -233.3,-341.89 -421.4,-576.78 -1011.3,-869.48 -319.9,-158.6 -515.7,-199.9 -846.2,-246.9 -557.7,-79.3 -1824.2,-50.5 -2189.8,142.6 z"
         style="fill:none;stroke:#231f20;stroke-width:26.0899;stroke-linecap:butt;stroke-linejoin:miter;stroke-miterlimit:10;stroke-dasharray:none;stroke-opacity:1"
         id="path128" /><path
         d="m 15348.8,5798.8 c -259.7,21.4 -480.9,53.8 -689.2,190.1 -1353.7,885.23 -2869.4,2664.25 -2126.8,3217.17 534.8,398.17 183.8,359.71 1521.1,1492.63 949.3,804.2 1934.3,1533.1 2500.8,1392.7 288.9,-71.5 701.4,-343.5 1007.2,-547.5 47.9,-32 96.2,-64.4 144.8,-97.2 1919,-1293.9 2120.3,-1290.5 2219.1,-1555.39 257.4,-690.65 -723.4,-2385.36 -1151.1,-2992.71 -307.8,-437.01 -463.6,-559.82 -696.9,-701.5 -176.4,-107 -379.1,-203.9 -580.3,-264.9 -555.7,-168.4 -1561.2,-181.8 -2148.7,-133.4 z"
         style="fill:none;stroke:#231f20;stroke-width:26.0899;stroke-linecap:butt;stroke-linejoin:miter;stroke-miterlimit:10;stroke-dasharray:none;stroke-opacity:1"
         id="path130" /><path
         d="m 15563.5,5886 c -670.1,17.9 -810.8,132.3 -1063.8,311.1 -1662.4,1175.41 -2533.6,2564.98 -2074,3024.23 858.6,858.07 323.2,568.48 1596.5,1746.67 479.6,443.8 1606,1480.6 2259.2,1468.4 360.9,-6.7 1033.5,-533.6 1476.6,-857.2 1830.7,-1336.8 2177.9,-1365.5 2243.5,-1731.81 128.4,-717.46 -829.7,-2368.53 -1423.6,-3101.76 -217.8,-268.97 -347.6,-372.62 -547,-484.53 -369.6,-207.6 -650.7,-248.8 -1089,-307 -435.7,-57.9 -980.7,-78.7 -1378.4,-68.1 z"
         style="fill:none;stroke:#231f20;stroke-width:26.0899;stroke-linecap:butt;stroke-linejoin:miter;stroke-miterlimit:10;stroke-dasharray:none;stroke-opacity:1"
         id="path132" /><path
         d="m 15408.8,5987.3 c -498.7,24 -646.8,118.9 -1012.6,383.37 -1611.2,1164.99 -2395.2,2407.22 -2063.1,2859.21 0,0 127.3,123.02 451.6,566.58 367.5,502.44 324.6,563.74 1204.3,1447.64 1823.8,1832.6 2180.9,1619.5 2662.6,1316.9 318.6,-200.2 705.5,-516.9 1188.2,-891.4 1635.8,-1268.6 2142.1,-1406.5 2203.3,-1773.62 113.1,-680.54 -846.3,-2297.66 -1507.1,-3085.75 -477.1,-569.13 -798.7,-620.03 -1529.4,-725.13 -495,-71.2 -1169,-118.5 -1597.8,-97.8 z"
         style="fill:none;stroke:#231f20;stroke-width:26.0899;stroke-linecap:butt;stroke-linejoin:miter;stroke-miterlimit:10;stroke-dasharray:none;stroke-opacity:1"
         id="path134" /><path
         d="m 15459.3,6079.1 c -538.7,15.1 -772.6,191.4 -949.6,312.34 -1275.2,871.64 -2535.6,2255.62 -2252.4,2839.09 0,0 457.4,667.73 727.9,1085.17 109.6,169.1 146.9,251.4 389.8,547.7 68.6,83.8 141.4,169.1 212.9,251.2 2105.4,2415.9 2462,2089.1 3008.3,1700 201.1,-143.2 432.9,-334.6 626.4,-495.6 2076.6,-1728.3 2739.2,-1992.3 2840,-2313.4 183.9,-585.23 -792.2,-2208.57 -1530.4,-3077.75 -365.9,-430.83 -546.9,-520.09 -805.4,-598.85 -180.4,-54.9 -1493.3,-271.6 -2267.5,-249.9 z"
         style="fill:none;stroke:#231f20;stroke-width:26.0899;stroke-linecap:butt;stroke-linejoin:miter;stroke-miterlimit:10;stroke-dasharray:none;stroke-opacity:1"
         id="path136" /><path
         d="m 14643.6,6407.42 c -588.3,340.65 -2654.1,2002.9 -2443.6,2814.99 23.8,91.6 769.2,1424.99 1371.9,2163.29 1997.8,2446.7 2341.3,2137.1 2855.9,1755.4 276.9,-205.3 605.1,-504.9 994.2,-848 1677.9,-1479.4 2614.1,-1915.6 2682,-2303.1 115.7,-660.8 -1077.2,-2443.31 -1776.9,-3157.37 -436.6,-445.37 -640.6,-419.15 -1252.1,-509.53 -1038.3,-153.4 -1824.6,-267 -2431.4,84.32 z"
         style="fill:none;stroke:#231f20;stroke-width:26.0899;stroke-linecap:butt;stroke-linejoin:miter;stroke-miterlimit:10;stroke-dasharray:none;stroke-opacity:1"
         id="path138" /><path
         d="m 14727.3,6478.86 c -542,247.18 -2733.5,1982.1 -2556.5,2784.47 6.2,28.18 194.5,502.79 450.7,956.07 543.4,961.5 891.8,1402.5 1416.9,2039.6 1408.7,1708.7 1718.7,1559.2 2125.5,1275.6 343.8,-239.7 773.8,-672.2 1314.6,-1168.2 1728.7,-1585.6 2678.4,-1946.3 2652.6,-2456.17 -39.4,-779.02 -1351.3,-2550.49 -1963.2,-3088.73 -371.5,-326.89 -627.2,-329.33 -957.7,-374.23 -822.4,-111.77 -1747.5,-303.87 -2482.9,31.59 z"
         style="fill:none;stroke:#231f20;stroke-width:26.0899;stroke-linecap:butt;stroke-linejoin:miter;stroke-miterlimit:10;stroke-dasharray:none;stroke-opacity:1"
         id="path140" /><path
         d="m 14066.2,7010.58 c -573.8,421.34 -1830.7,1472.6 -1918.4,2165.09 -7.5,58.83 -3.4,105.97 2.8,131.67 185.5,757.96 590.4,1384.76 1001.8,2050.96 97.9,158.5 217.5,328.5 327.3,479.4 542,744.9 1596.8,2198.1 2194,2160.7 325.9,-20.5 992.1,-732.4 1517.2,-1245.5 1827.7,-1785.3 2973,-2270 2955,-2786.34 -25.9,-732.76 -1406,-2520.37 -2034.4,-3042.73 -356,-295.94 -600.5,-313.64 -898,-357.32 -1870.2,-274.61 -2316.5,-165.93 -3147.3,444.07 z"
         style="fill:none;stroke:#231f20;stroke-width:26.0899;stroke-linecap:butt;stroke-linejoin:miter;stroke-miterlimit:10;stroke-dasharray:none;stroke-opacity:1"
         id="path142" /><path
         d="m 14088.7,7095.29 c -679.2,483.13 -2046.9,1648.29 -1949.8,2255.03 134.1,837.48 484.8,1414.98 881.6,2051.48 156.5,251.1 205.5,378.5 838.8,1233.4 356.8,481.7 1282.8,1787.9 1780.5,1618.6 338.2,-115 787.8,-610.6 1358.2,-1198.1 1756.1,-1808.9 3071.2,-2474.9 3153.1,-2984.8 96.1,-598.51 -1489.4,-2611.02 -2183.5,-3095.39 -216,-150.66 -401.1,-213.43 -634.9,-250.38 -1637.8,-258.87 -2368.1,-252.92 -3244,370.16 z"
         style="fill:none;stroke:#231f20;stroke-width:26.0899;stroke-linecap:butt;stroke-linejoin:miter;stroke-miterlimit:10;stroke-dasharray:none;stroke-opacity:1"
         id="path144" /><path
         d="m 14100.3,7190.5 c -945.8,648.85 -1983.8,1656.87 -1972,2132.95 17.7,709.25 308.6,1397.45 676.6,1997.75 366.3,597.6 1900.6,3036.7 2585.1,3173.4 380.4,76 881.6,-571.4 1707.5,-1444.8 1567.6,-1657.5 3037.5,-2454.2 3059.1,-2986.7 24.7,-609.08 -1715.6,-2783.93 -2526.9,-3098.37 -111.3,-43.13 -202.3,-63.2 -296.7,-79.65 -1187.1,-206.86 -2324.4,-317.73 -3232.7,305.42 z"
         style="fill:none;stroke:#231f20;stroke-width:26.0899;stroke-linecap:butt;stroke-linejoin:miter;stroke-miterlimit:10;stroke-dasharray:none;stroke-opacity:1"
         id="path146" /><path
         d="m 14411.7,7137.38 c -618.5,261.9 -2239.7,1592.58 -2280.2,2222.56 -43.2,674.46 200.1,1430.16 569.1,2056.06 125.7,213.2 1852.5,2980.6 2534.5,3256.7 455,184.1 816,-407.1 1912.3,-1591.6 1461,-1578.2 2973.9,-2424.5 3004.7,-2994 28.2,-523.16 -1640.8,-2526.07 -2443.4,-2906.16 -135.1,-63.97 -248.7,-96.04 -384.9,-121.66 -930.3,-175.02 -2046.3,-288.51 -2912.1,78.1 z"
         style="fill:none;stroke:#231f20;stroke-width:26.0899;stroke-linecap:butt;stroke-linejoin:miter;stroke-miterlimit:10;stroke-dasharray:none;stroke-opacity:1"
         id="path148" /><path
         d="m 14303.4,7322.63 c -620.8,256.75 -2079.7,1456.79 -2163.9,2076.5 -75.7,556.46 44.9,1331.67 418.4,2034.47 175.1,329.7 1920.1,3005.1 2548.1,3365.4 639.3,366.6 1041.7,-654 2479.3,-2106.6 1314.4,-1328.4 2744.9,-2137.5 2523.2,-2738.54 -134.2,-363.52 -572.7,-899.67 -828.6,-1191.76 -704.1,-803.59 -1335.3,-1388.96 -1956.5,-1513.52 -938.2,-188.1 -2130.5,-293.79 -3020,74.05 z"
         style="fill:none;stroke:#231f20;stroke-width:26.0899;stroke-linecap:butt;stroke-linejoin:miter;stroke-miterlimit:10;stroke-dasharray:none;stroke-opacity:1"
         id="path150" /><path
         d="m 14055.3,7570.05 c -481.9,227.73 -1632.2,1165.36 -1861.8,1713.04 -83,198.04 -205.5,1101.91 174.1,2028.51 266.9,651.6 2128.2,3202.1 2631.1,3559.3 772.4,548.4 1115.3,-667.3 2733.6,-2265.8 997.8,-985.6 2346.5,-1905.5 2389.3,-2464.5 25.5,-335.12 -876.6,-1285.3 -1117.5,-1527.99 -527.2,-531.23 -1092.5,-1039.53 -1681.4,-1163.64 -994.1,-209.56 -2341.9,-316.13 -3267.4,121.08 z"
         style="fill:none;stroke:#231f20;stroke-width:26.0899;stroke-linecap:butt;stroke-linejoin:miter;stroke-miterlimit:10;stroke-dasharray:none;stroke-opacity:1"
         id="path152" /></g></g></svg>
