<?xml version="1.0" standalone="no"?>
<!DOCTYPE svg PUBLIC "-//W3C//DTD SVG 20010904//EN"
 "http://www.w3.org/TR/2001/REC-SVG-20010904/DTD/svg10.dtd">
<svg version="1.0" xmlns="http://www.w3.org/2000/svg"
 width="996.000000pt" height="866.000000pt" viewBox="0 0 996.000000 866.000000"
 preserveAspectRatio="xMidYMid meet">
<metadata>
Created by potrace 1.16, written by Peter Selinger 2001-2019
</metadata>
<g transform="translate(0.000000,866.000000) scale(0.100000,-0.100000)"
fill="#000000" stroke="none">
<path d="M4977 7990 c-9 -383 -25 -1104 -37 -1795 -18 -949 -23 -2823 -11
-3695 14 -998 20 -1628 15 -1535 -2 39 -11 252 -19 475 -26 681 -92 1937 -160
3075 -68 1138 -94 1946 -96 3060 -2 662 -2 674 -14 465 -49 -837 -68 -2006
-45 -2820 22 -760 70 -1596 165 -2855 88 -1155 105 -1397 104 -1438 -1 -23
-10 48 -20 158 -63 683 -99 1018 -200 1875 -242 2056 -271 2360 -311 3180 -13
273 -17 1459 -7 1825 l7 220 -13 -135 c-16 -164 -40 -531 -57 -855 -16 -320
-16 -1452 0 -1745 45 -803 131 -1579 337 -3060 148 -1060 209 -1529 203 -1558
-2 -9 -12 45 -21 122 -56 426 -151 1007 -302 1836 -138 758 -202 1118 -254
1435 -22 132 -51 305 -65 385 -77 436 -130 918 -168 1530 -17 270 -17 1338 0
1595 23 350 22 378 -3 170 -56 -481 -79 -910 -79 -1525 0 -762 36 -1249 145
-1925 129 -804 168 -1012 439 -2335 97 -476 215 -1093 224 -1175 3 -27 -23 90
-58 260 -97 468 -159 735 -376 1615 -441 1785 -546 2324 -614 3155 -53 639
-46 1342 19 1874 22 180 14 186 -13 10 -140 -894 -141 -1861 -6 -2834 86 -621
235 -1271 569 -2500 247 -905 432 -1630 423 -1657 -2 -5 -21 62 -42 149 -100
409 -269 991 -455 1568 -612 1906 -751 2485 -843 3505 -18 197 -18 1046 0
1230 16 168 48 416 68 534 26 153 8 104 -25 -66 -207 -1080 -161 -2291 129
-3433 116 -454 260 -929 450 -1485 250 -728 385 -1127 455 -1345 90 -283 198
-645 193 -651 -3 -2 -12 22 -22 54 -143 468 -298 900 -616 1717 -454 1169
-610 1622 -765 2230 -257 1006 -297 1963 -119 2839 28 140 30 169 3 71 -61
-224 -126 -624 -155 -945 -20 -221 -22 -715 -5 -930 53 -651 179 -1235 431
-1990 151 -453 267 -754 648 -1680 230 -560 415 -1030 408 -1037 -2 -2 -7 6
-11 19 -39 123 -310 737 -625 1413 -460 988 -637 1412 -805 1924 -351 1073
-411 2043 -189 3034 18 83 32 152 30 154 -4 5 -61 -214 -95 -367 -97 -441
-138 -905 -120 -1362 35 -883 265 -1715 789 -2848 34 -74 200 -414 367 -755
168 -341 342 -696 386 -790 99 -212 227 -494 227 -503 0 -3 -90 174 -199 393
-110 220 -274 535 -364 700 -91 165 -251 458 -356 650 -593 1081 -874 1766
-1016 2475 -139 698 -121 1391 56 2104 16 65 28 121 26 123 -11 10 -106 -369
-146 -582 -62 -324 -84 -565 -83 -915 0 -498 66 -937 216 -1436 187 -622 457
-1184 1068 -2229 273 -466 425 -733 543 -950 110 -203 187 -355 181 -355 -2 0
-31 51 -65 114 -159 301 -361 634 -750 1236 -515 798 -702 1112 -896 1505
-285 574 -442 1065 -516 1610 -26 191 -37 659 -20 856 23 261 71 546 132 778
16 62 28 115 26 117 -5 5 -68 -223 -102 -369 -85 -361 -133 -834 -120 -1162
29 -711 188 -1303 534 -1995 205 -409 415 -747 932 -1500 258 -377 468 -694
596 -900 123 -198 135 -220 130 -220 -3 0 -27 35 -53 78 -177 285 -394 592
-859 1212 -525 700 -717 977 -909 1313 -610 1064 -756 2051 -472 3169 24 95
43 174 41 176 -4 5 -43 -126 -81 -273 -288 -1115 -161 -2139 387 -3122 229
-412 440 -709 1029 -1448 405 -508 531 -671 701 -910 119 -167 138 -189 182
-211 42 -20 48 -21 43 -6 -6 16 -5 16 6 0 7 -9 20 -30 29 -46 10 -17 37 -39
66 -53 28 -13 57 -36 65 -50 17 -30 88 -75 88 -56 0 7 9 -7 19 -30 13 -28 33
-49 60 -65 23 -13 43 -30 46 -38 3 -9 18 -24 35 -33 29 -17 30 -17 31 0 1 10
6 1 11 -20 11 -41 61 -79 71 -54 3 6 6 2 6 -10 1 -29 38 -66 57 -59 9 3 14 -1
14 -14 0 -21 34 -45 50 -35 6 3 10 -1 10 -9 0 -16 34 -31 50 -21 5 3 10 -1 10
-9 0 -13 14 -16 75 -16 71 0 75 1 76 23 0 12 3 16 6 10 6 -17 28 -17 45 0 7 7
25 18 41 24 15 7 27 19 27 28 0 8 7 15 15 15 8 0 28 12 44 27 16 16 41 36 55
46 14 10 26 23 26 30 0 7 15 19 33 28 17 8 39 30 48 48 10 17 20 32 23 31 18
-2 68 34 78 55 6 14 15 25 19 25 5 0 6 8 3 18 -4 12 -3 13 4 4 13 -19 77 21
92 59 7 16 15 27 18 25 10 -11 85 40 106 70 11 17 25 32 29 32 33 3 104 51
131 90 39 56 77 101 46 54 l-22 -33 38 16 c22 10 47 19 56 22 9 3 84 84 166
182 169 199 361 411 702 776 439 470 635 694 826 948 471 625 717 1191 810
1862 22 161 30 584 15 768 -15 179 -43 371 -81 557 -34 164 -105 433 -121 458
-9 15 -10 14 -4 -3 4 -11 24 -93 46 -182 83 -342 120 -637 120 -970 0 -246
-11 -377 -47 -593 -96 -570 -343 -1120 -767 -1705 -177 -244 -325 -422 -813
-980 -396 -453 -565 -654 -742 -883 -150 -194 -175 -224 -131 -157 69 104 354
475 669 870 477 600 614 781 809 1074 458 686 703 1321 777 2016 22 214 22
594 -1 810 -20 193 -54 399 -95 577 -34 150 -111 430 -117 424 -2 -2 14 -72
36 -157 312 -1204 127 -2261 -599 -3419 -168 -268 -326 -491 -779 -1095 -420
-560 -509 -683 -713 -990 -204 -306 -218 -322 -74 -90 116 190 335 521 568
861 552 806 747 1118 957 1534 504 997 652 1909 476 2927 -35 200 -140 631
-152 620 -2 -2 10 -55 26 -118 64 -250 111 -526 132 -784 17 -203 6 -658 -20
-850 -94 -694 -340 -1350 -799 -2135 -134 -230 -257 -425 -540 -865 -436 -676
-655 -1033 -811 -1327 -35 -65 -65 -118 -68 -118 -17 0 293 562 612 1110 324
555 424 731 540 945 511 945 764 1707 836 2520 17 191 14 619 -5 815 -34 343
-77 576 -173 928 -20 72 -38 130 -40 128 -2 -2 9 -57 26 -122 178 -711 195
-1426 50 -2134 -143 -696 -424 -1376 -1021 -2465 -97 -176 -238 -435 -315
-575 -185 -337 -389 -731 -498 -962 -49 -103 -91 -186 -92 -184 -10 10 344
760 607 1286 741 1482 1014 2258 1132 3220 19 163 22 233 23 590 0 413 -3 467
-46 770 -32 225 -135 701 -156 720 -3 3 -3 -8 1 -25 213 -878 200 -1748 -38
-2676 -159 -622 -374 -1168 -936 -2374 -375 -805 -553 -1213 -695 -1595 -43
-115 -68 -170 -50 -110 58 196 328 883 603 1535 381 904 536 1316 701 1855
206 677 301 1373 288 2110 -6 326 -14 446 -47 710 -27 215 -106 638 -117 626
-2 -2 7 -68 21 -147 57 -334 75 -537 83 -914 6 -331 -4 -559 -37 -866 -94
-865 -287 -1529 -875 -3014 -329 -831 -565 -1484 -660 -1823 -10 -34 -20 -61
-22 -58 -15 15 174 596 655 2016 435 1283 598 2004 663 2935 16 222 16 794 1
1010 -19 252 -49 504 -88 735 -30 176 -73 384 -59 280 3 -19 16 -111 30 -205
53 -368 60 -486 60 -1000 0 -512 -8 -643 -60 -1062 -97 -766 -247 -1348 -760
-2953 -258 -806 -345 -1106 -494 -1690 -22 -85 -40 -149 -40 -143 -3 47 223
932 414 1623 363 1312 531 2086 614 2820 98 863 81 1848 -44 2559 -26 146 -26
131 5 -169 63 -622 52 -1353 -31 -2080 -80 -700 -202 -1287 -594 -2860 -205
-822 -312 -1291 -397 -1738 -18 -96 -34 -169 -36 -163 -8 24 107 619 382 1971
145 717 245 1282 336 1895 85 575 123 1339 102 2028 -16 498 -48 955 -87 1242
l-14 100 5 -95 c3 -52 9 -162 14 -245 6 -82 13 -352 16 -600 11 -723 -21
-1349 -102 -2000 -42 -341 -157 -1024 -374 -2225 -174 -959 -221 -1238 -300
-1785 -32 -220 -59 -391 -59 -380 -2 34 95 773 188 1445 195 1402 280 2113
331 2760 57 739 64 1647 20 2450 -14 248 -51 744 -56 750 -3 2 -1 -95 3 -215
12 -332 8 -1516 -5 -1805 -26 -526 -62 -1010 -103 -1370 -11 -96 -38 -335 -60
-530 -22 -195 -84 -737 -139 -1205 -108 -925 -142 -1240 -194 -1790 -19 -198
-35 -341 -35 -317 -1 43 15 264 94 1302 138 1810 185 2777 185 3795 0 643 -22
1435 -55 1995 -12 211 -12 202 -14 -440 -2 -1081 -29 -1958 -91 -2980 -27
-444 -95 -1669 -119 -2145 -18 -348 -31 -641 -61 -1340 -10 -244 -8 57 11
1435 12 866 7 2640 -11 3580 -14 788 -31 1614 -39 1895 l-6 250 -8 -295z"/>
<path d="M1619 6803 c-22 -58 -108 -414 -133 -553 -43 -239 -57 -382 -63 -652
-6 -288 4 -459 43 -688 100 -599 346 -1138 779 -1715 198 -263 394 -489 838
-963 327 -350 517 -560 670 -740 72 -85 141 -166 152 -178 17 -20 125 -71 125
-59 0 8 -223 300 -328 430 -138 170 -332 397 -677 790 -340 388 -509 590 -665
796 -454 602 -708 1128 -830 1723 -104 508 -80 1112 69 1690 36 142 42 175 20
119z"/>
<path d="M8623 6495 c86 -302 135 -635 144 -971 24 -941 -291 -1693 -1065
-2539 -41 -44 -352 -357 -692 -695 -548 -546 -774 -779 -872 -902 l-29 -37 63
21 c60 20 74 31 288 242 124 122 380 363 570 535 587 534 945 907 1167 1217
559 781 736 1645 547 2664 -31 170 -103 462 -116 475 -7 7 -8 3 -5 -10z"/>
<path d="M1329 6473 c-6 -16 -26 -91 -44 -168 -294 -1222 -101 -2204 608
-3098 211 -266 518 -577 1047 -1057 184 -168 437 -405 561 -527 207 -205 230
-224 284 -243 32 -11 60 -18 62 -16 13 13 -340 381 -922 961 -634 633 -799
807 -978 1038 -405 520 -629 1024 -719 1620 -30 195 -32 669 -5 882 24 180 60
380 96 523 28 109 32 141 10 85z"/>
<path d="M8904 6136 c28 -78 89 -448 107 -646 17 -189 6 -611 -20 -775 -57
-354 -173 -684 -346 -979 -243 -417 -575 -775 -1200 -1294 -115 -95 -310 -257
-431 -358 -370 -307 -718 -624 -669 -611 11 4 42 11 68 18 38 9 76 35 185 126
134 112 393 315 817 640 395 303 669 543 858 751 456 502 695 1008 773 1643
23 185 23 582 0 781 -32 277 -112 688 -138 713 -8 7 -9 4 -4 -9z"/>
<path d="M1022 6003 c-196 -829 -150 -1576 135 -2200 147 -322 371 -633 668
-927 219 -217 370 -341 1126 -924 130 -100 307 -241 393 -313 149 -123 162
-131 229 -149 l72 -18 -104 99 c-57 55 -160 150 -230 211 -116 102 -215 186
-796 669 -828 688 -1202 1158 -1416 1779 -106 307 -150 590 -150 960 0 279 30
550 92 838 31 142 15 122 -19 -25z"/>
<path d="M9192 5643 c40 -208 59 -397 65 -638 8 -331 -12 -526 -82 -801 -45
-177 -91 -300 -180 -479 -135 -272 -260 -441 -525 -706 -267 -267 -438 -400
-1090 -849 -483 -333 -830 -590 -793 -590 10 1 45 6 78 13 51 10 89 31 255
143 107 72 326 213 485 314 651 411 916 607 1165 860 609 618 834 1416 689
2435 -25 174 -65 375 -77 387 -5 5 0 -35 10 -89z"/>
<path d="M776 5702 c-9 -15 -56 -278 -78 -447 -19 -135 -22 -209 -23 -470 0
-325 5 -384 51 -615 121 -605 433 -1097 964 -1521 229 -182 428 -318 930 -634
129 -82 321 -206 427 -276 178 -119 197 -129 259 -139 36 -6 68 -9 70 -7 10
10 -332 263 -701 517 -571 394 -732 511 -920 669 -602 507 -910 1020 -1017
1696 -20 122 -22 180 -23 445 0 316 8 416 55 680 18 98 20 124 6 102z"/>
<path d="M9440 5239 c0 -8 7 -66 15 -128 93 -703 -26 -1338 -336 -1805 -100
-150 -181 -247 -326 -386 -271 -262 -483 -405 -1199 -808 -265 -148 -639 -367
-704 -411 -10 -7 11 -9 70 -4 l85 6 275 142 c151 78 348 179 438 224 216 108
448 236 603 332 706 439 1062 990 1145 1777 27 253 12 668 -37 982 -11 68 -29
118 -29 79z"/>
<path d="M511 5199 c-12 -33 -38 -236 -52 -404 -16 -198 -6 -574 19 -741 67
-430 216 -784 459 -1084 90 -111 282 -293 413 -391 233 -175 409 -277 945
-551 226 -116 456 -234 512 -264 102 -54 103 -55 179 -52 l77 3 -179 106 c-98
59 -325 189 -504 289 -706 397 -933 549 -1194 800 -330 318 -522 647 -626
1074 -81 328 -97 733 -46 1126 14 107 14 132 -3 89z"/>
</g>
</svg>
